%TF.GenerationSoftware,KiCad,Pcbnew,(6.0.0)*%
%TF.CreationDate,2022-12-27T13:23:36-08:00*%
%TF.ProjectId,denna,64656e6e-612e-46b6-9963-61645f706362,rev?*%
%TF.SameCoordinates,Original*%
%TF.FileFunction,Paste,Bot*%
%TF.FilePolarity,Positive*%
%FSLAX46Y46*%
G04 Gerber Fmt 4.6, Leading zero omitted, Abs format (unit mm)*
G04 Created by KiCad (PCBNEW (6.0.0)) date 2022-12-27 13:23:36*
%MOMM*%
%LPD*%
G01*
G04 APERTURE LIST*
G04 Aperture macros list*
%AMRoundRect*
0 Rectangle with rounded corners*
0 $1 Rounding radius*
0 $2 $3 $4 $5 $6 $7 $8 $9 X,Y pos of 4 corners*
0 Add a 4 corners polygon primitive as box body*
4,1,4,$2,$3,$4,$5,$6,$7,$8,$9,$2,$3,0*
0 Add four circle primitives for the rounded corners*
1,1,$1+$1,$2,$3*
1,1,$1+$1,$4,$5*
1,1,$1+$1,$6,$7*
1,1,$1+$1,$8,$9*
0 Add four rect primitives between the rounded corners*
20,1,$1+$1,$2,$3,$4,$5,0*
20,1,$1+$1,$4,$5,$6,$7,0*
20,1,$1+$1,$6,$7,$8,$9,0*
20,1,$1+$1,$8,$9,$2,$3,0*%
G04 Aperture macros list end*
%ADD10RoundRect,0.135000X-0.185000X0.135000X-0.185000X-0.135000X0.185000X-0.135000X0.185000X0.135000X0*%
%ADD11RoundRect,0.140000X0.170000X-0.140000X0.170000X0.140000X-0.170000X0.140000X-0.170000X-0.140000X0*%
%ADD12RoundRect,0.135000X0.185000X-0.135000X0.185000X0.135000X-0.185000X0.135000X-0.185000X-0.135000X0*%
%ADD13RoundRect,0.140000X0.140000X0.170000X-0.140000X0.170000X-0.140000X-0.170000X0.140000X-0.170000X0*%
%ADD14RoundRect,0.050000X-0.300000X-0.725000X0.300000X-0.725000X0.300000X0.725000X-0.300000X0.725000X0*%
%ADD15RoundRect,0.050000X-0.150000X-0.725000X0.150000X-0.725000X0.150000X0.725000X-0.150000X0.725000X0*%
%ADD16RoundRect,0.140000X-0.140000X-0.170000X0.140000X-0.170000X0.140000X0.170000X-0.140000X0.170000X0*%
%ADD17R,0.700000X1.000000*%
%ADD18R,0.700000X0.600000*%
%ADD19RoundRect,0.135000X-0.135000X-0.185000X0.135000X-0.185000X0.135000X0.185000X-0.135000X0.185000X0*%
%ADD20R,1.778000X0.419100*%
%ADD21R,1.800000X1.200000*%
%ADD22R,1.550000X0.600000*%
%ADD23RoundRect,0.150000X0.150000X-0.587500X0.150000X0.587500X-0.150000X0.587500X-0.150000X-0.587500X0*%
%ADD24RoundRect,0.250000X0.315000X0.315000X-0.315000X0.315000X-0.315000X-0.315000X0.315000X-0.315000X0*%
%ADD25RoundRect,0.062500X0.375000X0.062500X-0.375000X0.062500X-0.375000X-0.062500X0.375000X-0.062500X0*%
%ADD26RoundRect,0.062500X0.062500X0.375000X-0.062500X0.375000X-0.062500X-0.375000X0.062500X-0.375000X0*%
%ADD27RoundRect,0.135000X0.135000X0.185000X-0.135000X0.185000X-0.135000X-0.185000X0.135000X-0.185000X0*%
%ADD28RoundRect,0.237500X0.250000X0.237500X-0.250000X0.237500X-0.250000X-0.237500X0.250000X-0.237500X0*%
%ADD29RoundRect,0.250000X-0.625000X0.375000X-0.625000X-0.375000X0.625000X-0.375000X0.625000X0.375000X0*%
%ADD30R,1.900000X0.400000*%
%ADD31RoundRect,0.140000X-0.170000X0.140000X-0.170000X-0.140000X0.170000X-0.140000X0.170000X0.140000X0*%
%ADD32RoundRect,0.150000X0.150000X-0.825000X0.150000X0.825000X-0.150000X0.825000X-0.150000X-0.825000X0*%
G04 APERTURE END LIST*
D10*
%TO.C,R14*%
X201017694Y-103783074D03*
X201017694Y-104803074D03*
%TD*%
D11*
%TO.C,C7*%
X48815748Y-52272318D03*
X48815748Y-51312318D03*
%TD*%
D12*
%TO.C,R27*%
X36314154Y-56469516D03*
X36314154Y-55449516D03*
%TD*%
D10*
%TO.C,R16*%
X81756456Y-99144704D03*
X81756456Y-100164704D03*
%TD*%
D13*
%TO.C,C1*%
X43144170Y-33181336D03*
X42184170Y-33181336D03*
%TD*%
D14*
%TO.C,USB1*%
X42018750Y-25360680D03*
X42793750Y-25360680D03*
D15*
X43493750Y-25360680D03*
X43993750Y-25360680D03*
X44493750Y-25360680D03*
X44993750Y-25360680D03*
X45493750Y-25360680D03*
X45993750Y-25360680D03*
X46493750Y-25360680D03*
X46993750Y-25360680D03*
D14*
X47693750Y-25360680D03*
X48468750Y-25360680D03*
%TD*%
D16*
%TO.C,C11*%
X192288652Y-95448678D03*
X193248652Y-95448678D03*
%TD*%
D17*
%TO.C,D1*%
X46843750Y-33361336D03*
D18*
X46843750Y-35081336D03*
X44643750Y-35081336D03*
X44643750Y-33181336D03*
%TD*%
D19*
%TO.C,R2*%
X46208244Y-52272318D03*
X47228244Y-52272318D03*
%TD*%
D20*
%TO.C,U4*%
X198237332Y-96548824D03*
X198237332Y-97199064D03*
X198237332Y-97849304D03*
X198237332Y-98499544D03*
X198237332Y-99144704D03*
X198237332Y-99794944D03*
X198237332Y-100445184D03*
X198237332Y-101095424D03*
X192288652Y-101095424D03*
X192288652Y-100445184D03*
X192288652Y-99794944D03*
X192288652Y-99144704D03*
X192288652Y-98499544D03*
X192288652Y-97849304D03*
X192288652Y-97199064D03*
X192288652Y-96548824D03*
%TD*%
D10*
%TO.C,R19*%
X129976890Y-97915248D03*
X129976890Y-98935248D03*
%TD*%
D21*
%TO.C,J1*%
X68612500Y-35300096D03*
X68612500Y-40900096D03*
D22*
X64737500Y-36600096D03*
X64737500Y-37600096D03*
X64737500Y-38600096D03*
X64737500Y-39600096D03*
%TD*%
D12*
%TO.C,R6*%
X37504782Y-56469516D03*
X37504782Y-55449516D03*
%TD*%
D10*
%TO.C,R26*%
X43656360Y-64889226D03*
X43656360Y-65909226D03*
%TD*%
D23*
%TO.C,U1*%
X42621980Y-36656340D03*
X40721980Y-36656340D03*
X41671980Y-34781340D03*
%TD*%
D10*
%TO.C,R10*%
X220464618Y-99304314D03*
X220464618Y-100324314D03*
%TD*%
D24*
%TO.C,U2*%
X43143750Y-56450000D03*
X47343750Y-55050000D03*
X47343750Y-56450000D03*
X44543750Y-55050000D03*
X47343750Y-59250000D03*
X43143750Y-55050000D03*
X44543750Y-59250000D03*
X43143750Y-59250000D03*
X47343750Y-57850000D03*
X44543750Y-56450000D03*
X45943750Y-55050000D03*
X45943750Y-59250000D03*
X43143750Y-57850000D03*
X44543750Y-57850000D03*
X45943750Y-56450000D03*
X45943750Y-57850000D03*
D25*
X48681250Y-54400000D03*
X48681250Y-54900000D03*
X48681250Y-55400000D03*
X48681250Y-55900000D03*
X48681250Y-56400000D03*
X48681250Y-56900000D03*
X48681250Y-57400000D03*
X48681250Y-57900000D03*
X48681250Y-58400000D03*
X48681250Y-58900000D03*
X48681250Y-59400000D03*
X48681250Y-59900000D03*
D26*
X47993750Y-60587500D03*
X47493750Y-60587500D03*
X46993750Y-60587500D03*
X46493750Y-60587500D03*
X45993750Y-60587500D03*
X45493750Y-60587500D03*
X44993750Y-60587500D03*
X44493750Y-60587500D03*
X43993750Y-60587500D03*
X43493750Y-60587500D03*
X42993750Y-60587500D03*
X42493750Y-60587500D03*
D25*
X41806250Y-59900000D03*
X41806250Y-59400000D03*
X41806250Y-58900000D03*
X41806250Y-58400000D03*
X41806250Y-57900000D03*
X41806250Y-57400000D03*
X41806250Y-56900000D03*
X41806250Y-56400000D03*
X41806250Y-55900000D03*
X41806250Y-55400000D03*
X41806250Y-54900000D03*
X41806250Y-54400000D03*
D26*
X42493750Y-53712500D03*
X42993750Y-53712500D03*
X43493750Y-53712500D03*
X43993750Y-53712500D03*
X44493750Y-53712500D03*
X44993750Y-53712500D03*
X45493750Y-53712500D03*
X45993750Y-53712500D03*
X46493750Y-53712500D03*
X46993750Y-53712500D03*
X47493750Y-53712500D03*
X47993750Y-53712500D03*
%TD*%
D27*
%TO.C,R9*%
X71352366Y-97036182D03*
X70332366Y-97036182D03*
%TD*%
D11*
%TO.C,C6*%
X42465732Y-52272318D03*
X42465732Y-51312318D03*
%TD*%
D13*
%TO.C,C5*%
X43493750Y-61912656D03*
X42533750Y-61912656D03*
%TD*%
D10*
%TO.C,R8*%
X189309852Y-98499544D03*
X189309852Y-99519544D03*
%TD*%
D28*
%TO.C,JP2*%
X51315752Y-76001754D03*
X49490752Y-76001754D03*
%TD*%
D12*
%TO.C,R23*%
X42465732Y-65909226D03*
X42465732Y-64889226D03*
%TD*%
D16*
%TO.C,C3*%
X49923252Y-53181384D03*
X50883252Y-53181384D03*
%TD*%
D29*
%TO.C,F1*%
X42793864Y-28564138D03*
X42793864Y-31364138D03*
%TD*%
D10*
%TO.C,R21*%
X47863244Y-74698002D03*
X47863244Y-75718002D03*
%TD*%
D27*
%TO.C,R3*%
X43372608Y-62904846D03*
X42352608Y-62904846D03*
%TD*%
D10*
%TO.C,R20*%
X285949158Y-96653992D03*
X285949158Y-95633992D03*
%TD*%
%TO.C,R13*%
X71040804Y-99144704D03*
X71040804Y-100164704D03*
%TD*%
D30*
%TO.C,Y1*%
X51593880Y-56762640D03*
X51593880Y-55562640D03*
X51593880Y-54362640D03*
%TD*%
D31*
%TO.C,C4*%
X40481352Y-60587500D03*
X40481352Y-61547500D03*
%TD*%
D13*
%TO.C,C12*%
X46593244Y-74811126D03*
X45633244Y-74811126D03*
%TD*%
D16*
%TO.C,C13*%
X49411062Y-61912656D03*
X50371062Y-61912656D03*
%TD*%
D10*
%TO.C,R17*%
X258564714Y-96526182D03*
X258564714Y-97546182D03*
%TD*%
D27*
%TO.C,R18*%
X147836310Y-92670546D03*
X146816310Y-92670546D03*
%TD*%
D20*
%TO.C,U3*%
X79372970Y-96548824D03*
X79372970Y-97199064D03*
X79372970Y-97849304D03*
X79372970Y-98499544D03*
X79372970Y-99144704D03*
X79372970Y-99794944D03*
X79372970Y-100445184D03*
X79372970Y-101095424D03*
X73424290Y-101095424D03*
X73424290Y-100445184D03*
X73424290Y-99794944D03*
X73424290Y-99144704D03*
X73424290Y-98499544D03*
X73424290Y-97849304D03*
X73424290Y-97199064D03*
X73424290Y-96548824D03*
%TD*%
D16*
%TO.C,C9*%
X50121690Y-58737648D03*
X51081690Y-58737648D03*
%TD*%
D27*
%TO.C,R4*%
X37617906Y-20439114D03*
X36597906Y-20439114D03*
%TD*%
D16*
%TO.C,C8*%
X50121690Y-59729838D03*
X51081690Y-59729838D03*
%TD*%
D10*
%TO.C,R12*%
X239713104Y-97319934D03*
X239713104Y-98339934D03*
%TD*%
D11*
%TO.C,C2*%
X39290724Y-36656340D03*
X39290724Y-35696340D03*
%TD*%
D12*
%TO.C,R11*%
X86518968Y-92670546D03*
X86518968Y-91650546D03*
%TD*%
D27*
%TO.C,R15*%
X166886358Y-92670546D03*
X165866358Y-92670546D03*
%TD*%
D12*
%TO.C,R24*%
X41275104Y-65909226D03*
X41275104Y-64889226D03*
%TD*%
%TO.C,R1*%
X52189194Y-59644524D03*
X52189194Y-58624524D03*
%TD*%
D19*
%TO.C,R5*%
X52671384Y-20439114D03*
X53691384Y-20439114D03*
%TD*%
D10*
%TO.C,R7*%
X31353204Y-97121496D03*
X31353204Y-98141496D03*
%TD*%
D19*
%TO.C,R25*%
X31438518Y-57150144D03*
X32458518Y-57150144D03*
%TD*%
D16*
%TO.C,C10*%
X73424290Y-95448678D03*
X74384290Y-95448678D03*
%TD*%
D32*
%TO.C,U5*%
X49133244Y-72920490D03*
X47863244Y-72920490D03*
X46593244Y-72920490D03*
X45323244Y-72920490D03*
X45323244Y-67970490D03*
X46593244Y-67970490D03*
X47863244Y-67970490D03*
X49133244Y-67970490D03*
%TD*%
D19*
%TO.C,R22*%
X49893252Y-74698002D03*
X50913252Y-74698002D03*
%TD*%
M02*
