M48
; DRILL file {KiCad (6.0.0)} date Tue Dec 27 13:23:39 2022
; FORMAT={-:-/ absolute / inch / decimal}
; #@! TF.CreationDate,2022-12-27T13:23:39-08:00
; #@! TF.GenerationSoftware,Kicad,Pcbnew,(6.0.0)
; #@! TF.FileFunction,NonPlated,1,4,NPTH
FMAT,2
INCH
; #@! TA.AperFunction,NonPlated,NPTH,ComponentDrill
T1C0.0256
; #@! TA.AperFunction,NonPlated,NPTH,ComponentDrill
T2C0.0866
%
G90
G05
T1
X1.6675Y-0.9416
X1.895Y-0.9416
T2
X0.9375Y-1.125
X0.9375Y-2.625
X1.7812Y-1.883
X1.7812Y-3.375
X2.0625Y-4.125
X2.625Y-1.125
X2.625Y-2.625
X3.375Y-3.375
X3.375Y-1.875
X4.0312Y-4.125
X4.125Y-2.625
X4.125Y-1.125
X4.875Y-3.375
X4.875Y-1.875
X4.9737Y-4.4182
X5.625Y-2.625
X5.625Y-1.125
X6.375Y-1.875
X6.4737Y-4.4182
X7.125Y-2.625
X7.125Y-1.125
X7.875Y-3.375
X7.875Y-1.875
X8.625Y-2.625
X8.625Y-4.125
X8.625Y-1.125
X9.375Y-3.375
X9.375Y-1.875
X10.125Y-2.625
X10.125Y-1.125
X10.875Y-4.125
X10.9688Y-1.875
X10.9688Y-3.375
X11.8125Y-2.625
X11.8125Y-1.125
T0
M30
