%TF.GenerationSoftware,KiCad,Pcbnew,(6.0.0)*%
%TF.CreationDate,2022-12-27T13:23:36-08:00*%
%TF.ProjectId,denna,64656e6e-612e-46b6-9963-61645f706362,rev?*%
%TF.SameCoordinates,Original*%
%TF.FileFunction,Soldermask,Top*%
%TF.FilePolarity,Negative*%
%FSLAX46Y46*%
G04 Gerber Fmt 4.6, Leading zero omitted, Abs format (unit mm)*
G04 Created by KiCad (PCBNEW (6.0.0)) date 2022-12-27 13:23:36*
%MOMM*%
%LPD*%
G01*
G04 APERTURE LIST*
%ADD10C,2.200000*%
%ADD11C,0.750000*%
%ADD12O,1.100000X1.700000*%
%ADD13O,1.100000X2.200000*%
%ADD14R,1.700000X1.700000*%
%ADD15O,1.700000X1.700000*%
G04 APERTURE END LIST*
D10*
%TO.C,H11*%
X123825312Y-47625120D03*
%TD*%
%TO.C,H4*%
X142875360Y-28575072D03*
%TD*%
%TO.C,H13*%
X200025504Y-47625120D03*
%TD*%
%TO.C,H14*%
X238125600Y-47625120D03*
%TD*%
%TO.C,H26*%
X123825000Y-85725000D03*
%TD*%
%TO.C,H25*%
X85725000Y-85725000D03*
%TD*%
%TO.C,H19*%
X142875000Y-66675000D03*
%TD*%
%TO.C,H30*%
X278606250Y-85725000D03*
%TD*%
%TO.C,H17*%
X66675000Y-66675000D03*
%TD*%
%TO.C,H32*%
X102393750Y-104775000D03*
%TD*%
%TO.C,H24*%
X45243750Y-85725000D03*
%TD*%
%TO.C,H29*%
X238125000Y-85725000D03*
%TD*%
%TO.C,H2*%
X66675000Y-28575072D03*
%TD*%
%TO.C,H34*%
X164430750Y-112223000D03*
%TD*%
%TO.C,H23*%
X300037500Y-66675000D03*
%TD*%
%TO.C,H10*%
X85725216Y-47625120D03*
%TD*%
%TO.C,H7*%
X257175648Y-28575072D03*
%TD*%
%TO.C,H16*%
X23812560Y-66675168D03*
%TD*%
%TO.C,H9*%
X45243750Y-47827240D03*
%TD*%
%TO.C,H28*%
X200025000Y-85725000D03*
%TD*%
%TO.C,H5*%
X180975456Y-28575072D03*
%TD*%
%TO.C,H36*%
X276225696Y-104775000D03*
%TD*%
%TO.C,H3*%
X104775264Y-28575072D03*
%TD*%
%TO.C,H8*%
X300038256Y-28575072D03*
%TD*%
%TO.C,H21*%
X219075000Y-66675000D03*
%TD*%
%TO.C,H31*%
X52387500Y-104775000D03*
%TD*%
%TO.C,H22*%
X257175000Y-66675000D03*
%TD*%
%TO.C,H20*%
X180975000Y-66675000D03*
%TD*%
%TO.C,H1*%
X23812500Y-28575000D03*
%TD*%
%TO.C,H6*%
X219075552Y-28575072D03*
%TD*%
%TO.C,H35*%
X219075000Y-104775000D03*
%TD*%
%TO.C,H15*%
X278606250Y-47625120D03*
%TD*%
%TO.C,H33*%
X126330750Y-112223000D03*
%TD*%
%TO.C,H12*%
X161925408Y-47625120D03*
%TD*%
%TO.C,H18*%
X104775000Y-66675000D03*
%TD*%
D11*
%TO.C,USB1*%
X42353750Y-23915680D03*
X48133750Y-23915680D03*
D12*
X49563750Y-20265680D03*
X40923750Y-20265680D03*
D13*
X49563750Y-24445680D03*
X40923750Y-24445680D03*
%TD*%
D14*
%TO.C,JP1*%
X46236054Y-42182922D03*
D15*
X46236054Y-44722922D03*
%TD*%
M02*
