M48
; DRILL file {KiCad (6.0.0)} date Tue Dec 27 13:23:39 2022
; FORMAT={-:-/ absolute / inch / decimal}
; #@! TF.CreationDate,2022-12-27T13:23:39-08:00
; #@! TF.GenerationSoftware,Kicad,Pcbnew,(6.0.0)
; #@! TF.FileFunction,Plated,1,4,PTH
FMAT,2
INCH
; #@! TA.AperFunction,Plated,PTH,ViaDrill
T1C0.0157
; #@! TA.AperFunction,Plated,PTH,ComponentDrill
T2C0.0236
; #@! TA.AperFunction,Plated,PTH,ComponentDrill
T3C0.0394
%
G90
G05
T1
X0.9375Y-0.8984
X0.9375Y-1.3516
X0.9375Y-4.4297
X0.9453Y-2.3984
X0.9453Y-2.8438
X1.0859Y-1.3984
X1.0859Y-1.4922
X1.0859Y-2.2031
X1.0859Y-2.2969
X1.0859Y-2.9844
X1.0859Y-3.0703
X1.1797Y-1.3984
X1.1797Y-1.4922
X1.1797Y-2.2031
X1.1797Y-2.2969
X1.1797Y-2.9844
X1.1797Y-3.0703
X1.2344Y-4.0313
X1.2734Y-1.125
X1.2734Y-1.875
X1.2734Y-2.625
X1.2734Y-3.375
X1.3516Y-1.125
X1.3516Y-1.875
X1.3516Y-2.625
X1.3516Y-3.375
X1.4336Y-1.4414
X1.4766Y-2.1484
X1.5469Y-0.8047
X1.5469Y-1.5078
X1.5625Y-2.1641
X1.5938Y-2.3359
X1.6055Y-2.8789
X1.6295Y-2.058
X1.6563Y-0.8906
X1.6563Y-1.6172
X1.6641Y-1.9766
X1.6848Y-1.0676
X1.7031Y-2.2344
X1.7031Y-2.3281
X1.7109Y-2.7109
X1.7109Y-2.8047
X1.7109Y-2.8984
X1.7109Y-2.9922
X1.7188Y-1.7578
X1.732Y-0.8594
X1.7344Y-1.625
X1.7538Y-1.4803
X1.7812Y-2.25
X1.7812Y-3.1484
X1.7812Y-3.5938
X1.7891Y-0.8047
X1.7891Y-2.5547
X1.7891Y-2.75
X1.8438Y-1.5197
X1.8502Y-0.8594
X1.8516Y-2.0156
X1.8594Y-2.2344
X1.8594Y-2.3281
X1.875Y-1.125
X1.875Y-1.2344
X1.8777Y-1.0676
X1.8828Y-3.0234
X1.9063Y-0.8906
X1.9453Y-1.9844
X1.9453Y-2.3906
X1.9609Y-2.0547
X2.0156Y-0.8047
X2.0156Y-3.625
X2.0156Y-3.7188
X2.0234Y-1.3984
X2.0234Y-1.625
X2.0313Y-3.0469
X2.0313Y-3.1172
X2.0938Y-3.6328
X2.1094Y-1.6094
X2.1094Y-2.1484
X2.1094Y-3.0078
X2.1172Y-1.3984
X2.125Y-3.7188
X2.1328Y-3.8594
X2.1406Y-3.0859
X2.2109Y-1.125
X2.2109Y-1.875
X2.2109Y-2.625
X2.2109Y-3.375
X2.2656Y-3.8594
X2.2891Y-1.125
X2.2891Y-1.875
X2.2891Y-2.625
X2.2891Y-3.375
X2.3047Y-2.9922
X2.3047Y-3.0703
X2.4375Y-4.0859
X2.4375Y-4.1641
X2.4453Y-2.9922
X2.4453Y-3.0703
X2.4531Y-1.3984
X2.4688Y-1.4803
X2.4688Y-1.5197
X2.4844Y-2.8984
X2.4844Y-3.6328
X2.5703Y-3.7188
X2.5859Y-2.992
X2.5859Y-3.0701
X2.5938Y-1.6707
X2.6172Y-1.7101
X2.625Y-0.8984
X2.625Y-1.3516
X2.625Y-1.875
X2.625Y-2.3984
X2.625Y-2.8516
X2.6328Y-1.5469
X2.6406Y-1.7494
X2.6406Y-1.7888
X2.6406Y-1.8281
X2.6641Y-2.9922
X2.6641Y-3.0703
X2.6797Y-3.625
X2.6797Y-3.7188
X2.7656Y-2.1484
X2.7656Y-2.2422
X2.7734Y-3.7109
X2.7813Y-2.8984
X2.7813Y-2.9922
X2.7813Y-3.0703
X2.8125Y-4.125
X2.8438Y-3.7578
X2.8516Y-3.7109
X2.8594Y-2.8984
X2.8594Y-2.9922
X2.8594Y-3.0703
X2.8672Y-1.6016
X2.8672Y-2.1484
X2.8672Y-2.2422
X2.9609Y-1.125
X2.9609Y-1.875
X2.9609Y-2.625
X2.9609Y-3.375
X2.9609Y-3.7109
X3.0078Y-3.8906
X3.0391Y-1.125
X3.0391Y-1.875
X3.0391Y-2.625
X3.0391Y-3.375
X3.0547Y-2.9922
X3.0547Y-3.0703
X3.0938Y-3.7109
X3.125Y-4.1328
X3.1719Y-3.7109
X3.2188Y-3.9922
X3.2344Y-1.3984
X3.2422Y-2.8984
X3.2422Y-2.9922
X3.2422Y-3.0703
X3.2656Y-3.7109
X3.2734Y-1.4766
X3.3125Y-1.5078
X3.3438Y-1.5391
X3.3594Y-3.7109
X3.375Y-1.125
X3.375Y-1.5703
X3.375Y-1.6484
X3.375Y-2.1016
X3.375Y-2.625
X3.375Y-3.1484
X3.375Y-3.5547
X3.3906Y-2.9922
X3.3906Y-3.0703
X3.4609Y-3.7109
X3.5156Y-1.3984
X3.5156Y-1.6172
X3.5156Y-2.1484
X3.5156Y-2.2422
X3.5156Y-3.6328
X3.5234Y-2.8984
X3.5234Y-2.9922
X3.5234Y-3.0703
X3.5625Y-4.0859
X3.5625Y-4.1641
X3.6094Y-3.7109
X3.6172Y-1.3984
X3.6172Y-1.6016
X3.6172Y-2.1484
X3.6172Y-2.2422
X3.6172Y-2.8984
X3.6172Y-2.9922
X3.6172Y-3.0703
X3.7109Y-1.125
X3.7109Y-1.875
X3.7109Y-2.625
X3.7109Y-3.375
X3.75Y-3.7109
X3.7891Y-1.125
X3.7891Y-1.875
X3.7891Y-2.625
X3.7891Y-3.375
X3.8203Y-2.9922
X3.8203Y-3.0703
X3.8906Y-3.7109
X3.9297Y-2.9922
X3.9297Y-3.0703
X3.9844Y-2.1484
X3.9844Y-2.2422
X3.9922Y-3.6328
X4.0078Y-2.9922
X4.0078Y-3.0703
X4.0313Y-3.8906
X4.0313Y-4.3594
X4.0391Y-3.7109
X4.0469Y-2.2969
X4.125Y-0.8984
X4.125Y-1.3516
X4.125Y-2.4063
X4.125Y-2.8516
X4.1641Y-3.6328
X4.1641Y-3.7109
X4.1719Y-2.9922
X4.1719Y-3.0703
X4.1953Y-2.2344
X4.1953Y-2.2891
X4.1953Y-2.3438
X4.1953Y-2.3984
X4.2656Y-1.3984
X4.2656Y-1.4922
X4.2656Y-2.1484
X4.2656Y-2.8984
X4.2656Y-2.9922
X4.2656Y-3.0703
X4.2734Y-3.6328
X4.2734Y-3.7109
X4.2813Y-2.3594
X4.3672Y-1.3984
X4.3672Y-1.4922
X4.3672Y-2.1484
X4.3672Y-2.8984
X4.3672Y-2.9922
X4.3672Y-3.0703
X4.3984Y-3.7109
X4.4609Y-1.125
X4.4609Y-1.875
X4.4609Y-2.625
X4.4609Y-3.375
X4.5Y-4.0859
X4.5Y-4.1641
X4.5391Y-1.125
X4.5391Y-1.875
X4.5391Y-2.625
X4.5391Y-3.375
X4.5625Y-2.9922
X4.5625Y-3.0703
X4.6719Y-3.7109
X4.7344Y-1.3984
X4.7344Y-1.4922
X4.7344Y-2.8984
X4.7344Y-2.9922
X4.7344Y-3.0703
X4.7422Y-2.1484
X4.875Y-1.125
X4.875Y-1.6484
X4.875Y-2.0938
X4.875Y-2.625
X4.875Y-2.9922
X4.875Y-3.0703
X4.875Y-3.1484
X4.875Y-3.6016
X5.0156Y-1.3984
X5.0156Y-1.5
X5.0156Y-2.1484
X5.0156Y-2.3594
X5.0156Y-3.625
X5.0156Y-3.7188
X5.0235Y-2.8984
X5.0235Y-2.9922
X5.0235Y-3.0703
X5.0625Y-4.125
X5.1172Y-1.3984
X5.1172Y-1.5
X5.1172Y-2.1484
X5.1172Y-2.3516
X5.1172Y-2.8984
X5.1172Y-2.9922
X5.1172Y-3.0703
X5.1485Y-3.8203
X5.1641Y-3.7109
X5.2031Y-3.9063
X5.211Y-1.125
X5.211Y-1.875
X5.211Y-2.625
X5.211Y-3.375
X5.2656Y-3.8203
X5.2891Y-1.125
X5.2891Y-1.875
X5.2891Y-2.625
X5.2891Y-3.375
X5.336Y-2.9922
X5.336Y-3.0703
X5.4844Y-2.9922
X5.4844Y-3.0703
X5.4844Y-3.6328
X5.4922Y-2.1484
X5.625Y-1.3477
X5.625Y-0.8984
X5.625Y-1.875
X5.625Y-2.3984
X5.625Y-2.8516
X5.625Y-3.375
X5.625Y-4.0859
X5.625Y-4.1641
X5.6406Y-2.9922
X5.6406Y-3.0703
X5.7344Y-3.6094
X5.7344Y-3.7188
X5.7656Y-1.3984
X5.7656Y-1.5
X5.7656Y-2.1484
X5.7656Y-2.3594
X5.7735Y-2.8984
X5.7735Y-2.9922
X5.7735Y-3.0703
X5.8672Y-1.3984
X5.8672Y-1.5
X5.8672Y-2.1484
X5.8672Y-2.3516
X5.8672Y-2.8984
X5.8672Y-2.9922
X5.8672Y-3.0703
X5.8828Y-3.7188
X5.8828Y-3.8438
X5.961Y-1.125
X5.961Y-1.875
X5.961Y-2.625
X5.961Y-3.375
X6.0391Y-1.125
X6.0391Y-1.875
X6.0391Y-2.625
X6.0391Y-3.375
X6.0781Y-2.9922
X6.0781Y-3.0703
X6.2266Y-2.3594
X6.2344Y-2.1484
X6.2344Y-3.6328
X6.2344Y-3.7188
X6.2344Y-3.8438
X6.2422Y-2.8984
X6.2422Y-2.9922
X6.2422Y-3.0703
X6.2969Y-4.25
X6.336Y-4.2813
X6.375Y-1.125
X6.375Y-1.6484
X6.375Y-2.1016
X6.375Y-4.3125
X6.4141Y-2.9922
X6.4141Y-3.0703
X6.4141Y-3.6328
X6.4141Y-3.7188
X6.5156Y-1.3984
X6.5156Y-1.5
X6.5156Y-2.1484
X6.5156Y-2.2422
X6.5235Y-2.8984
X6.5391Y-4.1094
X6.6094Y-2.8984
X6.6094Y-3.0703
X6.6172Y-1.3984
X6.6172Y-1.5
X6.6172Y-2.1484
X6.6172Y-2.2422
X6.711Y-1.125
X6.711Y-1.875
X6.711Y-2.625
X6.711Y-3.375
X6.7891Y-1.125
X6.7891Y-1.875
X6.7891Y-2.625
X6.7891Y-3.375
X6.8516Y-3.8359
X6.9844Y-2.9063
X7.0156Y-3.0781
X7.0391Y-3.7109
X7.125Y-1.3477
X7.125Y-0.8984
X7.125Y-1.875
X7.125Y-2.3984
X7.125Y-2.8516
X7.125Y-3.375
X7.125Y-4.0859
X7.125Y-4.1641
X7.2656Y-1.3984
X7.2656Y-1.5
X7.2656Y-2.1484
X7.2656Y-2.2422
X7.2656Y-3.6328
X7.2656Y-3.7188
X7.2735Y-2.8984
X7.2735Y-2.9922
X7.2735Y-3.0703
X7.3672Y-1.3984
X7.3672Y-1.5
X7.3672Y-2.1484
X7.3672Y-2.2422
X7.3672Y-2.8984
X7.3672Y-2.9922
X7.3672Y-3.0703
X7.461Y-1.125
X7.461Y-1.875
X7.461Y-2.625
X7.461Y-3.375
X7.4688Y-4.3594
X7.5235Y-3.7578
X7.5391Y-1.125
X7.5391Y-1.875
X7.5391Y-2.625
X7.5391Y-3.375
X7.5703Y-2.9922
X7.5703Y-3.0703
X7.6797Y-3.8047
X7.6953Y-2.9922
X7.6953Y-3.0703
X7.6953Y-3.7188
X7.7188Y-3.6328
X7.7344Y-4.125
X7.875Y-1.125
X7.875Y-1.6484
X7.875Y-2.1016
X7.875Y-2.625
X7.875Y-3.1484
X7.875Y-3.6016
X7.8906Y-3.9531
X8.0Y-3.625
X8.0Y-3.7188
X8.0156Y-1.3984
X8.0156Y-1.5
X8.0156Y-2.1484
X8.0156Y-2.2422
X8.0235Y-2.8984
X8.0235Y-2.9922
X8.1172Y-1.3984
X8.1172Y-1.5
X8.1172Y-2.1484
X8.1172Y-2.2422
X8.1172Y-2.8984
X8.1172Y-2.9922
X8.1328Y-3.7188
X8.211Y-1.125
X8.211Y-1.875
X8.211Y-2.625
X8.211Y-3.375
X8.25Y-4.0859
X8.25Y-4.1641
X8.2891Y-1.125
X8.2891Y-1.875
X8.2891Y-2.625
X8.2891Y-3.375
X8.625Y-1.3477
X8.625Y-0.8984
X8.625Y-1.875
X8.625Y-2.3984
X8.625Y-2.8516
X8.625Y-3.375
X8.625Y-3.9844
X8.625Y-4.3125
X8.75Y-3.625
X8.75Y-3.7188
X8.7656Y-1.3984
X8.7656Y-1.5
X8.7656Y-2.1484
X8.7656Y-2.2422
X8.7656Y-2.8984
X8.7656Y-2.9922
X8.8672Y-1.3984
X8.8672Y-1.5
X8.8672Y-2.1484
X8.8672Y-2.2422
X8.8672Y-2.8984
X8.8672Y-2.9922
X8.8906Y-3.7188
X8.961Y-1.125
X8.961Y-1.875
X8.961Y-2.625
X8.961Y-3.375
X9.0Y-4.0859
X9.0Y-4.1641
X9.0391Y-1.125
X9.0391Y-1.875
X9.0391Y-2.625
X9.0391Y-3.375
X9.2344Y-3.6328
X9.375Y-1.125
X9.375Y-1.6484
X9.375Y-2.1016
X9.375Y-2.625
X9.375Y-3.1484
X9.375Y-3.6016
X9.375Y-3.8906
X9.375Y-4.125
X9.375Y-4.3594
X9.5156Y-1.3984
X9.5156Y-1.5
X9.5156Y-2.1484
X9.5156Y-2.2422
X9.5156Y-2.8984
X9.5156Y-2.9922
X9.5156Y-3.6328
X9.5156Y-3.7188
X9.6172Y-1.3984
X9.6172Y-1.5
X9.6172Y-2.1484
X9.6172Y-2.2422
X9.6172Y-2.8984
X9.6172Y-2.9922
X9.625Y-3.7188
X9.711Y-1.125
X9.711Y-1.875
X9.711Y-2.625
X9.711Y-3.375
X9.75Y-4.0859
X9.75Y-4.1641
X9.7891Y-1.125
X9.7891Y-1.875
X9.7891Y-2.625
X9.7891Y-3.375
X9.9844Y-3.6328
X10.1248Y-0.8982
X10.125Y-1.3477
X10.125Y-1.875
X10.125Y-2.3984
X10.125Y-2.8516
X10.125Y-3.375
X10.125Y-3.8906
X10.125Y-4.125
X10.125Y-4.3594
X10.2657Y-1.3984
X10.2657Y-1.5
X10.2657Y-2.1484
X10.2657Y-2.2422
X10.2657Y-2.8984
X10.2657Y-2.9922
X10.2657Y-3.6328
X10.2657Y-3.7188
X10.3672Y-1.3984
X10.3672Y-1.5
X10.3672Y-2.1484
X10.3672Y-2.2422
X10.3672Y-2.8984
X10.3672Y-2.9922
X10.375Y-3.7188
X10.461Y-1.125
X10.461Y-1.875
X10.461Y-2.625
X10.461Y-3.375
X10.5Y-4.0859
X10.5Y-4.1641
X10.5391Y-1.125
X10.5391Y-1.875
X10.5391Y-2.625
X10.5391Y-3.375
X10.8672Y-3.8906
X10.8672Y-4.3594
X10.9688Y-1.125
X10.9688Y-2.625
X10.9688Y-1.6484
X10.9688Y-2.1016
X10.9688Y-3.1484
X10.9688Y-3.6016
X11.2032Y-1.3984
X11.2032Y-1.5
X11.2032Y-2.1484
X11.2032Y-2.2422
X11.2032Y-2.8984
X11.2032Y-2.9922
X11.2188Y-3.6328
X11.2188Y-3.7109
X11.3047Y-1.3984
X11.3047Y-1.5
X11.3047Y-2.1484
X11.3047Y-2.2344
X11.3047Y-2.8984
X11.3047Y-2.9922
X11.3985Y-1.125
X11.3985Y-1.875
X11.3985Y-2.625
X11.3985Y-3.375
X11.4453Y-4.125
X11.4766Y-1.125
X11.4766Y-1.875
X11.4766Y-2.625
X11.4766Y-3.375
X11.5938Y-1.3984
X11.7032Y-0.875
X11.8047Y-1.5
X11.8047Y-1.875
X11.8047Y-2.3984
X11.8047Y-2.8516
X11.8047Y-3.375
T3
X1.8203Y-1.6607
X1.8203Y-1.7607
T2
G00X1.6112Y-0.7861
M15
G01X1.6112Y-0.8097
M16
G05
G00X1.6112Y-0.9408
M15
G01X1.6112Y-0.9841
M16
G05
G00X1.9513Y-0.7861
M15
G01X1.9513Y-0.8097
M16
G05
G00X1.9513Y-0.9408
M15
G01X1.9513Y-0.9841
M16
G05
T0
M30
