0
SECTION
2
HEADER
9
$INSUNITS
70
4
9
$ACADVER
1
AC1014
9
$HANDSEED
5
FFFF
0
ENDSEC
0
SECTION
2
TABLES
0
TABLE
2
VPORT
5
8
100
AcDbSymbolTable
0
ENDTAB
0
TABLE
2
LTYPE
5
5
100
AcDbSymbolTable
0
LTYPE
5
14
100
AcDbSymbolTableRecord
100
AcDbLinetypeTableRecord
2
BYBLOCK
70
0
0
LTYPE
5
15
100
AcDbSymbolTableRecord
100
AcDbLinetypeTableRecord
2
BYLAYER
70
0
0
ENDTAB
0
TABLE
2
LAYER
5
2
100
AcDbSymbolTable
70
2
0
LAYER
5
50
100
AcDbSymbolTableRecord
100
AcDbLayerTableRecord
2
0
70
0
6
CONTINUOUS
0
ENDTAB
0
TABLE
2
STYLE
5
3
100
AcDbSymbolTable
70
1
0
STYLE
5
11
100
AcDbSymbolTableRecord
100
AcDbTextStyleTableRecord
2
STANDARD
70
0
0
ENDTAB
0
TABLE
2
VIEW
5
6
100
AcDbSymbolTable
70
0
0
ENDTAB
0
TABLE
2
UCS
5
7
100
AcDbSymbolTable
70
0
0
ENDTAB
0
TABLE
2
APPID
5
9
100
AcDbSymbolTable
70
2
0
APPID
5
12
100
AcDbSymbolTableRecord
100
AcDbRegAppTableRecord
2
ACAD
70
0
0
ENDTAB
0
TABLE
2
DIMSTYLE
5
A
100
AcDbSymbolTable
70
1
0
ENDTAB
0
TABLE
2
BLOCK_RECORD
5
1
100
AcDbSymbolTable
70
1
0
BLOCK_RECORD
5
1F
100
AcDbSymbolTableRecord
100
AcDbBlockTableRecord
2
*MODEL_SPACE
0
BLOCK_RECORD
5
1B
100
AcDbSymbolTableRecord
100
AcDbBlockTableRecord
2
*PAPER_SPACE
0
ENDTAB
0
ENDSEC
0
SECTION
2
BLOCKS
0
BLOCK
5
20
100
AcDbEntity
100
AcDbBlockBegin
2
*MODEL_SPACE
0
ENDBLK
5
21
100
AcDbEntity
100
AcDbBlockEnd
0
BLOCK
5
1C
100
AcDbEntity
100
AcDbBlockBegin
2
*PAPER_SPACE
0
ENDBLK
5
1D
100
AcDbEntity
100
AcDbBlockEnd
0
ENDSEC
0
SECTION
2
ENTITIES
0
LWPOLYLINE
5
100
100
AcDbEntity
8
0
100
AcDbPolyline
90
56
70
1
43
0.0
10
35.187096500004735
20
-51.12511350375204
42
0.99999999999999989
10
40.187096500004742
20
-51.12511350375204
10
40.187096500004742
20
-49.625113503752019
42
-0.41421356237309503
10
41.187096500004742
20
-48.625113503752019
10
101.27459650000472
20
-48.625113503752019
42
-0.41421356237309503
10
102.27459650000471
20
-49.625113503752019
10
102.27459650000471
20
-51.12511350375204
42
0.99999999999999989
10
107.27459650000471
20
-51.12511350375204
10
107.27459650000471
20
-49.625113503752019
42
-0.41421356237309503
10
108.27459650000471
20
-48.625113503752019
10
140.87535701110173
20
-48.625113503752033
42
0.41421356237308982
10
142.8753570111017
20
-46.62511350375204
10
142.8753570111017
20
46.625117017578724
42
0.41421356237309892
10
140.8753570111017
20
48.625117017578745
10
132.08790641916951
20
48.625117017578752
42
-0.41421356237309503
10
131.08790641916951
20
49.625117017578752
10
131.08790641916951
20
51.125117017578745
42
0.99999999999999989
10
126.08790641916954
20
51.125117017578745
10
126.08790641916953
20
49.625117017578752
42
-0.41421356237309503
10
125.08790641916953
20
48.625117017578752
10
51.125406466887135
20
48.625117017578752
42
-0.41421356237309503
10
50.125406466887135
20
49.625117017578752
10
50.125406466887128
20
51.125117017578745
42
0.99999999999999989
10
45.125406466887128
20
51.125117017578745
10
45.125406466887128
20
49.625117017578752
42
-0.41421356237310025
10
44.125406466887114
20
48.625117017578752
10
-44.12540349999523
20
48.625117017578752
42
-0.41421356237309503
10
-45.125403499995222
20
49.625117017578752
10
-45.125403499995222
20
51.125117017578745
42
0.99999999999999989
10
-50.125403499995222
20
51.125117017578745
10
-50.12540349999523
20
49.625117017578752
42
-0.41421356237309503
10
-51.12540349999523
20
48.625117017578752
10
-125.0879034522776
20
48.625117017578752
42
-0.41421356237309503
10
-126.0879034522776
20
49.625117017578752
10
-126.0879034522776
20
51.125117017578745
42
0.99999999999999989
10
-131.0879034522776
20
51.125117017578745
10
-131.08790345227763
20
49.625117017578752
42
-0.41421356237309503
10
-132.0879034522776
20
48.625117017578752
10
-140.87535404420981
20
48.625117017578745
42
0.41421356237309892
10
-142.87535404420976
20
46.625117017578724
10
-142.87535404420981
20
-46.62511350375204
42
0.41421356237310025
10
-140.87535404420979
20
-48.625113503752033
10
-108.27540349999522
20
-48.625113503752019
42
-0.41421356237309503
10
-107.27540349999522
20
-49.625113503752019
10
-107.27540349999522
20
-51.12511350375204
42
0.99999999999999989
10
-102.27540349999522
20
-51.12511350375204
10
-102.27540349999521
20
-49.625113503752019
42
-0.41421356237309503
10
-101.27540349999521
20
-48.62511350375204
10
-41.187903499995251
20
-48.625113503752019
42
-0.41421356237309503
10
-40.187903499995258
20
-49.625113503752019
10
-40.187903499995258
20
-51.12511350375204
42
0.99999999999999989
10
-35.187903499995258
20
-51.12511350375204
10
-35.187903499995265
20
-49.625113503752019
42
-0.41421356237309764
10
-34.187903499995258
20
-48.625113503752019
10
34.187096500004742
20
-48.625113503752019
42
-0.41421356237309503
10
35.187096500004742
20
-49.625113503752019
0
CIRCLE
5
101
100
AcDbEntity
8
0
100
AcDbCircle
10
-138.11290349999521
20
38.100166999995643
30
0
40
0.89999999999999647
210
0
220
0
230
1
0
CIRCLE
5
102
100
AcDbEntity
8
0
100
AcDbCircle
10
37.687096500004735
20
-51.12511350375204
30
0
40
1.3750000000000029
210
0
220
0
230
1
0
CIRCLE
5
103
100
AcDbEntity
8
0
100
AcDbCircle
10
-37.687903499995258
20
-51.12511350375204
30
0
40
1.3750000000000029
210
0
220
0
230
1
0
LWPOLYLINE
5
104
100
AcDbEntity
8
0
100
AcDbPolyline
90
8
70
1
43
0.0
10
112.0745965000048
20
6.0001669999956428
10
112.0745965000048
20
-5.9998330000043589
10
111.0745965000048
20
-6.9998330000043651
10
98.474596500004807
20
-6.9998330000043651
10
97.474596500004807
20
-5.9998330000043643
10
97.474596500004793
20
6.000166999995642
10
98.474596500004807
20
7.0001669999956473
10
111.0745965000048
20
7.0001669999956384
0
LWPOLYLINE
5
105
100
AcDbEntity
8
0
100
AcDbPolyline
90
8
70
1
43
0.0
10
-54.92540349999522
20
-5.9998330000043643
10
-54.925403499995227
20
6.000166999995642
10
-53.92540349999522
20
7.0001669999956473
10
-41.325403499995225
20
7.0001669999956384
10
-40.325403499995225
20
6.0001669999956428
10
-40.325403499995225
20
-5.9998330000043589
10
-41.325403499995225
20
-6.9998330000043651
10
-53.92540349999522
20
-6.9998330000043651
0
LWPOLYLINE
5
106
100
AcDbEntity
8
0
100
AcDbPolyline
90
8
70
1
43
0.0
10
-134.88790349999522
20
-6.9998330000043651
10
-135.88790349999522
20
-5.9998330000043643
10
-135.88790349999522
20
6.0001669999956428
10
-134.88790349999522
20
7.0001669999956473
10
-122.28790349999521
20
7.0001669999956384
10
-121.28790349999521
20
6.0001669999956428
10
-121.28790349999521
20
-5.9998330000043589
10
-122.28790349999521
20
-6.9998330000043651
0
LWPOLYLINE
5
107
100
AcDbEntity
8
0
100
AcDbPolyline
90
8
70
1
43
0.0
10
-112.07540349999522
20
6.0001669999956428
10
-111.07540349999525
20
7.0001669999956473
10
-98.47540349999521
20
7.0001669999956384
10
-97.475403499995252
20
6.0001669999956428
10
-97.475403499995252
20
-5.9998330000043598
10
-98.47540349999521
20
-6.9998330000043651
10
-111.07540349999525
20
-6.9998330000043651
10
-112.07540349999522
20
-5.9998330000043643
0
LWPOLYLINE
5
108
100
AcDbEntity
8
0
100
AcDbPolyline
90
8
70
1
43
0.0
10
-93.025403499995207
20
-5.9998330000043643
10
-93.025403499995235
20
6.000166999995642
10
-92.025403499995235
20
7.0001669999956473
10
-79.425403499995227
20
7.0001669999956384
10
-78.425403499995227
20
6.0001669999956428
10
-78.425403499995227
20
-5.9998330000043598
10
-79.425403499995227
20
-6.9998330000043651
10
-92.025403499995235
20
-6.9998330000043651
0
LWPOLYLINE
5
109
100
AcDbEntity
8
0
100
AcDbPolyline
90
8
70
1
43
0.0
10
34.87459650000477
20
-6.9998330000043651
10
22.274596500004762
20
-6.9998330000043651
10
21.274596500004787
20
-5.9998330000043643
10
21.274596500004765
20
6.0001669999956428
10
22.274596500004762
20
7.0001669999956473
10
34.87459650000477
20
7.0001669999956384
10
35.874596500004756
20
6.0001669999956428
10
35.874596500004756
20
-5.9998330000043589
0
LWPOLYLINE
5
110
100
AcDbEntity
8
0
100
AcDbPolyline
90
8
70
1
43
0.0
10
79.42459650000481
20
-6.9998330000043651
10
78.424596500004839
20
-5.9998330000043643
10
78.42459650000481
20
6.000166999995642
10
79.42459650000481
20
7.0001669999956473
10
92.024596500004847
20
7.0001669999956384
10
93.02459650000479
20
6.0001669999956428
10
93.02459650000479
20
-5.9998330000043589
10
92.024596500004847
20
-6.9998330000043651
0
LWPOLYLINE
5
111
100
AcDbEntity
8
0
100
AcDbPolyline
90
8
70
1
43
0.0
10
-16.82540349999524
20
6.0001669999956428
10
-15.825403499995243
20
7.0001669999956473
10
-3.2254034999952275
20
7.0001669999956384
10
-2.2254034999952488
20
6.0001669999956428
10
-2.2254034999952488
20
-5.9998330000043589
10
-3.2254034999952275
20
-6.9998330000043651
10
-15.825403499995243
20
-6.9998330000043651
10
-16.825403499995222
20
-5.9998330000043643
0
LWPOLYLINE
5
112
100
AcDbEntity
8
0
100
AcDbPolyline
90
8
70
1
43
0.0
10
-73.975403499995224
20
25.05016699999565
10
-72.975403499995224
20
26.05016699999565
10
-60.375403499995215
20
26.050166999995646
10
-59.37540349999523
20
25.05016699999565
10
-59.37540349999523
20
13.050166999995644
10
-60.375403499995215
20
12.050166999995636
10
-72.975403499995224
20
12.050166999995636
10
-73.975403499995181
20
13.050166999995643
0
LWPOLYLINE
5
113
100
AcDbEntity
8
0
100
AcDbPolyline
90
8
70
1
43
0.0
10
-72.975403499995224
20
-6.9998330000043651
10
-73.975403499995181
20
-5.9998330000043643
10
-73.975403499995224
20
6.0001669999956428
10
-72.975403499995224
20
7.0001669999956473
10
-60.375403499995215
20
7.0001669999956384
10
-59.37540349999523
20
6.0001669999956428
10
-59.37540349999523
20
-5.9998330000043589
10
-60.375403499995215
20
-6.9998330000043651
0
LWPOLYLINE
5
114
100
AcDbEntity
8
0
100
AcDbPolyline
90
8
70
1
43
0.0
10
-78.425403499995227
20
-13.049833000004361
10
-78.425403499995227
20
-25.049833000004362
10
-79.425403499995227
20
-26.049833000004377
10
-92.025403499995235
20
-26.049833000004377
10
-93.025403499995207
20
-25.049833000004377
10
-93.025403499995235
20
-13.049833000004361
10
-92.025403499995235
20
-12.049833000004355
10
-79.425403499995227
20
-12.049833000004366
0
LWPOLYLINE
5
115
100
AcDbEntity
8
0
100
AcDbPolyline
90
8
70
1
43
0.0
10
-53.92540349999522
20
-12.049833000004355
10
-41.325403499995225
20
-12.049833000004366
10
-40.325403499995225
20
-13.049833000004361
10
-40.325403499995225
20
-25.049833000004362
10
-41.325403499995225
20
-26.049833000004377
10
-53.92540349999522
20
-26.049833000004377
10
-54.92540349999522
20
-25.049833000004377
10
-54.925403499995227
20
-13.049833000004361
0
LWPOLYLINE
5
116
100
AcDbEntity
8
0
100
AcDbPolyline
90
8
70
1
43
0.0
10
134.88709650000484
20
7.0001669999956384
10
135.88709650000482
20
6.0001669999956428
10
135.88709650000482
20
-5.9998330000043598
10
134.88709650000484
20
-6.9998330000043651
10
122.28709650000482
20
-6.9998330000043651
10
121.28709650000486
20
-5.9998330000043643
10
121.28709650000481
20
6.000166999995642
10
122.28709650000482
20
7.0001669999956473
0
LWPOLYLINE
5
117
100
AcDbEntity
8
0
100
AcDbPolyline
90
8
70
1
43
0.0
10
16.824596500004766
20
6.0001669999956428
10
16.824596500004766
20
-5.9998330000043589
10
15.824596500004786
20
-6.9998330000043651
10
3.2245965000047683
20
-6.9998330000043651
10
2.2245965000047896
20
-5.9998330000043643
10
2.2245965000047718
20
6.0001669999956428
10
3.2245965000047683
20
7.0001669999956473
10
15.824596500004786
20
7.0001669999956384
0
LWPOLYLINE
5
118
100
AcDbEntity
8
0
100
AcDbPolyline
90
8
70
1
43
0.0
10
54.924596500004803
20
6.0001669999956428
10
54.924596500004803
20
-5.9998330000043589
10
53.924596500004824
20
-6.9998330000043651
10
41.324596500004809
20
-6.9998330000043651
10
40.32459650000483
20
-5.9998330000043643
10
40.324596500004816
20
6.000166999995642
10
41.324596500004809
20
7.0001669999956473
10
53.924596500004824
20
7.0001669999956384
0
LWPOLYLINE
5
119
100
AcDbEntity
8
0
100
AcDbPolyline
90
8
70
1
43
0.0
10
-21.275403499995239
20
-5.9998330000043598
10
-22.275403499995218
20
-6.9998330000043651
10
-34.875403499995237
20
-6.9998330000043651
10
-35.875403499995215
20
-5.9998330000043643
10
-35.87540349999523
20
6.0001669999956428
10
-34.875403499995237
20
7.0001669999956473
10
-22.275403499995218
20
7.0001669999956384
10
-21.275403499995239
20
6.0001669999956428
0
LWPOLYLINE
5
120
100
AcDbEntity
8
0
100
AcDbPolyline
90
8
70
1
43
0.0
10
59.374596500004813
20
6.0001669999956428
10
60.374596500004799
20
7.0001669999956473
10
72.974596500004822
20
7.0001669999956384
10
73.974596500004779
20
6.0001669999956428
10
73.974596500004779
20
-5.9998330000043598
10
72.974596500004822
20
-6.9998330000043651
10
60.374596500004799
20
-6.9998330000043651
10
59.374596500004813
20
-5.9998330000043643
0
LWPOLYLINE
5
121
100
AcDbEntity
8
0
100
AcDbPolyline
90
8
70
1
43
0.0
10
53.924596500004824
20
12.050166999995636
10
41.324596500004809
20
12.050166999995636
10
40.32459650000483
20
13.050166999995643
10
40.324596500004816
20
25.05016699999565
10
41.324596500004809
20
26.05016699999565
10
53.924596500004824
20
26.050166999995646
10
54.924596500004803
20
25.05016699999565
10
54.924596500004803
20
13.050166999995644
0
LWPOLYLINE
5
122
100
AcDbEntity
8
0
100
AcDbPolyline
90
8
70
1
43
0.0
10
122.28709650000482
20
12.050166999995636
10
121.28709650000486
20
13.050166999995643
10
121.28709650000481
20
25.05016699999565
10
122.28709650000482
20
26.05016699999565
10
134.88709650000484
20
26.050166999995646
10
135.88709650000482
20
25.05016699999565
10
135.88709650000482
20
13.050166999995644
10
134.88709650000484
20
12.050166999995636
0
LWPOLYLINE
5
123
100
AcDbEntity
8
0
100
AcDbPolyline
90
8
70
1
43
0.0
10
15.824596500004786
20
12.050166999995636
10
3.2245965000047683
20
12.050166999995636
10
2.2245965000047896
20
13.050166999995643
10
2.2245965000047718
20
25.05016699999565
10
3.2245965000047683
20
26.05016699999565
10
15.824596500004786
20
26.050166999995646
10
16.824596500004766
20
25.05016699999565
10
16.824596500004766
20
13.050166999995644
0
LWPOLYLINE
5
124
100
AcDbEntity
8
0
100
AcDbPolyline
90
8
70
1
43
0.0
10
40.32459650000483
20
-25.049833000004377
10
40.324596500004816
20
-13.049833000004361
10
41.324596500004809
20
-12.049833000004355
10
53.924596500004824
20
-12.049833000004366
10
54.924596500004803
20
-13.049833000004361
10
54.924596500004803
20
-25.049833000004362
10
53.924596500004824
20
-26.049833000004377
10
41.324596500004809
20
-26.049833000004377
0
LWPOLYLINE
5
125
100
AcDbEntity
8
0
100
AcDbPolyline
90
8
70
1
43
0.0
10
-54.925403499995227
20
-32.099833000004374
10
-53.92540349999522
20
-31.099833000004374
10
-41.325403499995225
20
-31.099833000004374
10
-40.325403499995225
20
-32.099833000004374
10
-40.325403499995225
20
-44.099833000004367
10
-41.325403499995225
20
-45.099833000004388
10
-53.92540349999522
20
-45.099833000004388
10
-54.92540349999522
20
-44.099833000004367
0
LWPOLYLINE
5
126
100
AcDbEntity
8
0
100
AcDbPolyline
90
8
70
1
43
0.0
10
72.974596500004822
20
-12.049833000004366
10
73.974596500004779
20
-13.049833000004361
10
73.974596500004779
20
-25.049833000004362
10
72.974596500004822
20
-26.049833000004377
10
60.374596500004799
20
-26.049833000004377
10
59.374596500004813
20
-25.049833000004377
10
59.374596500004813
20
-13.049833000004361
10
60.374596500004799
20
-12.049833000004355
0
LWPOLYLINE
5
127
100
AcDbEntity
8
0
100
AcDbPolyline
90
8
70
1
43
0.0
10
93.02459650000479
20
-44.099833000004367
10
92.024596500004847
20
-45.099833000004388
10
79.42459650000481
20
-45.099833000004388
10
78.424596500004839
20
-44.099833000004367
10
78.42459650000481
20
-32.099833000004374
10
79.42459650000481
20
-31.099833000004374
10
92.024596500004847
20
-31.099833000004374
10
93.02459650000479
20
-32.099833000004374
0
LWPOLYLINE
5
128
100
AcDbEntity
8
0
100
AcDbPolyline
90
8
70
1
43
0.0
10
111.0745965000048
20
-45.099833000004388
10
98.474596500004807
20
-45.099833000004388
10
97.474596500004807
20
-44.099833000004367
10
97.474596500004793
20
-32.099833000004374
10
98.474596500004807
20
-31.099833000004374
10
111.0745965000048
20
-31.099833000004374
10
112.0745965000048
20
-32.099833000004374
10
112.0745965000048
20
-44.099833000004367
0
LWPOLYLINE
5
129
100
AcDbEntity
8
0
100
AcDbPolyline
90
8
70
1
43
0.0
10
16.824596500004766
20
-13.049833000004361
10
16.824596500004766
20
-25.049833000004362
10
15.824596500004786
20
-26.049833000004377
10
3.2245965000047683
20
-26.049833000004377
10
2.2245965000047896
20
-25.049833000004377
10
2.2245965000047718
20
-13.049833000004361
10
3.2245965000047683
20
-12.049833000004355
10
15.824596500004786
20
-12.049833000004366
0
LWPOLYLINE
5
130
100
AcDbEntity
8
0
100
AcDbPolyline
90
8
70
1
43
0.0
10
21.274596500004787
20
-25.049833000004377
10
21.274596500004765
20
-13.049833000004361
10
22.274596500004762
20
-12.049833000004355
10
34.87459650000477
20
-12.049833000004366
10
35.874596500004756
20
-13.049833000004361
10
35.874596500004756
20
-25.049833000004362
10
34.87459650000477
20
-26.049833000004377
10
22.274596500004762
20
-26.049833000004377
0
LWPOLYLINE
5
131
100
AcDbEntity
8
0
100
AcDbPolyline
90
8
70
1
43
0.0
10
-16.82540349999524
20
-13.049833000004361
10
-15.825403499995243
20
-12.049833000004355
10
-3.2254034999952275
20
-12.049833000004366
10
-2.2254034999952488
20
-13.049833000004361
10
-2.2254034999952488
20
-25.049833000004362
10
-3.2254034999952275
20
-26.049833000004377
10
-15.825403499995243
20
-26.049833000004377
10
-16.825403499995222
20
-25.049833000004377
0
LWPOLYLINE
5
132
100
AcDbEntity
8
0
100
AcDbPolyline
90
8
70
1
43
0.0
10
-121.28790349999521
20
-13.049833000004361
10
-121.28790349999521
20
-25.049833000004362
10
-122.28790349999521
20
-26.049833000004377
10
-134.88790349999522
20
-26.049833000004377
10
-135.88790349999522
20
-25.049833000004377
10
-135.88790349999522
20
-13.049833000004361
10
-134.88790349999522
20
-12.049833000004355
10
-122.28790349999521
20
-12.049833000004366
0
LWPOLYLINE
5
133
100
AcDbEntity
8
0
100
AcDbPolyline
90
8
70
1
43
0.0
10
97.474596500004793
20
-13.049833000004361
10
98.474596500004807
20
-12.049833000004355
10
111.0745965000048
20
-12.049833000004366
10
112.0745965000048
20
-13.049833000004361
10
112.0745965000048
20
-25.049833000004362
10
111.0745965000048
20
-26.049833000004377
10
98.474596500004807
20
-26.049833000004377
10
97.474596500004807
20
-25.049833000004377
0
LWPOLYLINE
5
134
100
AcDbEntity
8
0
100
AcDbPolyline
90
8
70
1
43
0.0
10
92.024596500004847
20
-12.049833000004366
10
93.02459650000479
20
-13.049833000004361
10
93.02459650000479
20
-25.049833000004362
10
92.024596500004847
20
-26.049833000004377
10
79.42459650000481
20
-26.049833000004377
10
78.424596500004839
20
-25.049833000004377
10
78.42459650000481
20
-13.049833000004361
10
79.42459650000481
20
-12.049833000004355
0
LWPOLYLINE
5
135
100
AcDbEntity
8
0
100
AcDbPolyline
90
8
70
1
43
0.0
10
-112.07540349999522
20
-13.049833000004361
10
-111.07540349999525
20
-12.049833000004355
10
-98.47540349999521
20
-12.049833000004366
10
-97.475403499995252
20
-13.049833000004361
10
-97.475403499995252
20
-25.049833000004362
10
-98.47540349999521
20
-26.049833000004377
10
-111.07540349999525
20
-26.049833000004377
10
-112.07540349999522
20
-25.049833000004377
0
LWPOLYLINE
5
136
100
AcDbEntity
8
0
100
AcDbPolyline
90
8
70
1
43
0.0
10
-21.275403499995239
20
-13.049833000004361
10
-21.275403499995239
20
-25.049833000004362
10
-22.275403499995218
20
-26.049833000004377
10
-34.875403499995237
20
-26.049833000004377
10
-35.875403499995215
20
-25.049833000004377
10
-35.87540349999523
20
-13.049833000004361
10
-34.875403499995237
20
-12.049833000004355
10
-22.275403499995218
20
-12.049833000004366
0
LWPOLYLINE
5
137
100
AcDbEntity
8
0
100
AcDbPolyline
90
8
70
1
43
0.0
10
-60.375403499995215
20
-12.049833000004366
10
-59.37540349999523
20
-13.049833000004361
10
-59.37540349999523
20
-25.049833000004362
10
-60.375403499995215
20
-26.049833000004377
10
-72.975403499995224
20
-26.049833000004377
10
-73.975403499995181
20
-25.049833000004377
10
-73.975403499995224
20
-13.049833000004361
10
-72.975403499995224
20
-12.049833000004355
0
LWPOLYLINE
5
138
100
AcDbEntity
8
0
100
AcDbPolyline
90
8
70
1
43
0.0
10
59.374596500004813
20
-44.099833000004367
10
59.374596500004813
20
-32.099833000004374
10
60.374596500004799
20
-31.099833000004374
10
72.974596500004822
20
-31.099833000004374
10
73.974596500004779
20
-32.099833000004374
10
73.974596500004779
20
-44.099833000004367
10
72.974596500004822
20
-45.099833000004388
10
60.374596500004799
20
-45.099833000004388
0
CIRCLE
5
139
100
AcDbEntity
8
0
100
AcDbCircle
10
-57.150139499995227
20
38.100094999995648
30
0
40
0.89999999999999647
210
0
220
0
230
1
0
CIRCLE
5
140
100
AcDbEntity
8
0
100
AcDbCircle
10
-38.100091499995216
20
19.05004699999564
30
0
40
0.89999999999999647
210
0
220
0
230
1
0
CIRCLE
5
141
100
AcDbEntity
8
0
100
AcDbCircle
10
-116.68165349999521
20
18.847926999995643
30
0
40
0.89999999999999647
210
0
220
0
230
1
0
LWPOLYLINE
5
142
100
AcDbEntity
8
0
100
AcDbPolyline
90
8
70
1
43
0.0
10
6.0495965000047827
20
-45.099833000004388
10
3.0495965000047764
20
-43.599833000004367
10
3.0495965000047764
20
-32.099833000004374
10
4.0495965000047756
20
-31.099833000004374
10
34.049596500004789
20
-31.099833000004374
10
35.049596500004789
20
-32.099833000004374
10
35.049596500004789
20
-43.599833000004367
10
32.049596500004789
20
-45.099833000004388
0
CIRCLE
5
143
100
AcDbEntity
8
0
100
AcDbCircle
10
76.200196500004779
20
19.05004699999564
30
0
40
0.89999999999999647
210
0
220
0
230
1
0
CIRCLE
5
144
100
AcDbEntity
8
0
100
AcDbCircle
10
2.5053465000048192
20
-45.547833000004367
30
0
40
0.89999999999999647
210
0
220
0
230
1
0
CIRCLE
5
145
100
AcDbEntity
8
0
100
AcDbCircle
10
57.149596500004819
20
-38.099833000004367
30
0
40
0.89999999999999647
210
0
220
0
230
1
0
CIRCLE
5
146
100
AcDbEntity
8
0
100
AcDbCircle
10
57.149596500004797
20
0.00016699999563662971
30
0
40
0.89999999999999647
210
0
220
0
230
1
0
CIRCLE
5
147
100
AcDbEntity
8
0
100
AcDbCircle
10
95.249596500004799
20
0.00016699999563662971
30
0
40
0.89999999999999647
210
0
220
0
230
1
0
CIRCLE
5
148
100
AcDbEntity
8
0
100
AcDbCircle
10
116.6808465000048
20
19.05004699999564
30
0
40
0.89999999999999647
210
0
220
0
230
1
0
LWPOLYLINE
5
149
100
AcDbEntity
8
0
100
AcDbPolyline
90
8
70
1
43
0.0
10
-32.05040349999522
20
-45.099833000004367
10
-35.05040349999522
20
-43.599833000004367
10
-35.05040349999522
20
-32.099833000004374
10
-34.050403499995227
20
-31.099833000004374
10
-4.0504034999952276
20
-31.099833000004374
10
-3.0504034999952268
20
-32.099833000004374
10
-3.0504034999952268
20
-43.599833000004367
10
-6.050403499995225
20
-45.099833000004367
0
CIRCLE
5
150
100
AcDbEntity
8
0
100
AcDbCircle
10
-35.594653499995204
20
-45.547833000004367
30
0
40
0.89999999999999647
210
0
220
0
230
1
0
CIRCLE
5
151
100
AcDbEntity
8
0
100
AcDbCircle
10
-95.250403499995215
20
38.100094999995648
30
0
40
0.89999999999999647
210
0
220
0
230
1
0
CIRCLE
5
152
100
AcDbEntity
8
0
100
AcDbCircle
10
114.3002925000048
20
-38.099833000004367
30
0
40
0.89999999999999647
210
0
220
0
230
1
0
CIRCLE
5
153
100
AcDbEntity
8
0
100
AcDbCircle
10
-116.68165349999521
20
-19.049833000004352
30
0
40
0.89999999999999647
210
0
220
0
230
1
0
CIRCLE
5
154
100
AcDbEntity
8
0
100
AcDbCircle
10
-57.150403499995221
20
0.00016699999563662971
30
0
40
0.89999999999999647
210
0
220
0
230
1
0
CIRCLE
5
155
100
AcDbEntity
8
0
100
AcDbCircle
10
-138.11284349999522
20
-1.0000043548785698e-06
30
0
40
0.89999999999999647
210
0
220
0
230
1
0
LWPOLYLINE
5
156
100
AcDbEntity
8
0
100
AcDbPolyline
90
8
70
1
43
0.0
10
-3.2254034999952275
20
12.050166999995636
10
-15.825403499995243
20
12.050166999995636
10
-16.825403499995222
20
13.050166999995643
10
-16.82540349999524
20
25.05016699999565
10
-15.825403499995243
20
26.05016699999565
10
-3.2254034999952275
20
26.050166999995646
10
-2.2254034999952488
20
25.05016699999565
10
-2.2254034999952488
20
13.050166999995644
0
LWPOLYLINE
5
157
100
AcDbEntity
8
0
100
AcDbPolyline
90
8
70
1
43
0.0
10
-97.475403499995252
20
13.050166999995644
10
-98.47540349999521
20
12.050166999995636
10
-111.07540349999525
20
12.050166999995636
10
-112.07540349999522
20
13.050166999995643
10
-112.07540349999522
20
25.05016699999565
10
-111.07540349999525
20
26.05016699999565
10
-98.47540349999521
20
26.050166999995646
10
-97.475403499995252
20
25.05016699999565
0
LWPOLYLINE
5
158
100
AcDbEntity
8
0
100
AcDbPolyline
90
8
70
1
43
0.0
10
111.0745965000048
20
45.100166999995643
10
112.0745965000048
20
44.100166999995658
10
112.0745965000048
20
32.100166999995643
10
111.0745965000048
20
31.100166999995643
10
98.474596500004807
20
31.100166999995643
10
97.474596500004807
20
32.100166999995643
10
97.474596500004793
20
44.100166999995658
10
98.474596500004807
20
45.10016699999565
0
LWPOLYLINE
5
159
100
AcDbEntity
8
0
100
AcDbPolyline
90
8
70
1
43
0.0
10
122.28709650000482
20
45.10016699999565
10
134.88709650000484
20
45.100166999995643
10
135.88709650000482
20
44.100166999995658
10
135.88709650000482
20
32.100166999995643
10
134.88709650000484
20
31.100166999995643
10
122.28709650000482
20
31.100166999995643
10
121.28709650000486
20
32.100166999995643
10
121.28709650000481
20
44.100166999995658
0
LWPOLYLINE
5
160
100
AcDbEntity
8
0
100
AcDbPolyline
90
8
70
1
43
0.0
10
-78.425403499995227
20
25.05016699999565
10
-78.425403499995227
20
13.050166999995644
10
-79.425403499995227
20
12.050166999995636
10
-92.025403499995235
20
12.050166999995636
10
-93.025403499995207
20
13.050166999995643
10
-93.025403499995235
20
25.05016699999565
10
-92.025403499995235
20
26.05016699999565
10
-79.425403499995227
20
26.050166999995646
0
LWPOLYLINE
5
161
100
AcDbEntity
8
0
100
AcDbPolyline
90
8
70
1
43
0.0
10
-53.92540349999522
20
12.050166999995636
10
-54.92540349999522
20
13.050166999995643
10
-54.925403499995227
20
25.05016699999565
10
-53.92540349999522
20
26.05016699999565
10
-41.325403499995225
20
26.050166999995646
10
-40.325403499995225
20
25.05016699999565
10
-40.325403499995225
20
13.050166999995644
10
-41.325403499995225
20
12.050166999995636
0
LWPOLYLINE
5
162
100
AcDbEntity
8
0
100
AcDbPolyline
90
8
70
1
43
0.0
10
22.274596500004762
20
12.050166999995636
10
21.274596500004787
20
13.050166999995643
10
21.274596500004765
20
25.05016699999565
10
22.274596500004762
20
26.05016699999565
10
34.87459650000477
20
26.050166999995646
10
35.874596500004756
20
25.05016699999565
10
35.874596500004756
20
13.050166999995644
10
34.87459650000477
20
12.050166999995636
0
LWPOLYLINE
5
163
100
AcDbEntity
8
0
100
AcDbPolyline
90
8
70
1
43
0.0
10
93.02459650000479
20
32.100166999995643
10
92.024596500004847
20
31.100166999995643
10
79.42459650000481
20
31.100166999995643
10
78.424596500004839
20
32.100166999995643
10
78.42459650000481
20
44.100166999995658
10
79.42459650000481
20
45.10016699999565
10
92.024596500004847
20
45.100166999995643
10
93.02459650000479
20
44.100166999995658
0
LWPOLYLINE
5
164
100
AcDbEntity
8
0
100
AcDbPolyline
90
8
70
1
43
0.0
10
-122.28790349999521
20
26.050166999995646
10
-121.28790349999521
20
25.05016699999565
10
-121.28790349999521
20
13.050166999995644
10
-122.28790349999521
20
12.050166999995636
10
-134.88790349999522
20
12.050166999995636
10
-135.88790349999522
20
13.050166999995643
10
-135.88790349999522
20
25.05016699999565
10
-134.88790349999522
20
26.05016699999565
0
LWPOLYLINE
5
165
100
AcDbEntity
8
0
100
AcDbPolyline
90
8
70
1
43
0.0
10
-35.87540349999523
20
25.05016699999565
10
-34.875403499995237
20
26.05016699999565
10
-22.275403499995218
20
26.050166999995646
10
-21.275403499995239
20
25.05016699999565
10
-21.275403499995239
20
13.050166999995644
10
-22.275403499995218
20
12.050166999995636
10
-34.875403499995237
20
12.050166999995636
10
-35.875403499995215
20
13.050166999995643
0
LWPOLYLINE
5
166
100
AcDbEntity
8
0
100
AcDbPolyline
90
8
70
1
43
0.0
10
92.024596500004847
20
26.050166999995646
10
93.02459650000479
20
25.05016699999565
10
93.02459650000479
20
13.050166999995644
10
92.024596500004847
20
12.050166999995636
10
79.42459650000481
20
12.050166999995636
10
78.424596500004839
20
13.050166999995643
10
78.42459650000481
20
25.05016699999565
10
79.42459650000481
20
26.05016699999565
0
LWPOLYLINE
5
167
100
AcDbEntity
8
0
100
AcDbPolyline
90
8
70
1
43
0.0
10
72.974596500004822
20
26.050166999995646
10
73.974596500004779
20
25.05016699999565
10
73.974596500004779
20
13.050166999995644
10
72.974596500004822
20
12.050166999995636
10
60.374596500004799
20
12.050166999995636
10
59.374596500004813
20
13.050166999995643
10
59.374596500004813
20
25.05016699999565
10
60.374596500004799
20
26.05016699999565
0
LWPOLYLINE
5
168
100
AcDbEntity
8
0
100
AcDbPolyline
90
8
70
1
43
0.0
10
98.474596500004807
20
26.05016699999565
10
111.0745965000048
20
26.050166999995646
10
112.0745965000048
20
25.05016699999565
10
112.0745965000048
20
13.050166999995644
10
111.0745965000048
20
12.050166999995636
10
98.474596500004807
20
12.050166999995636
10
97.474596500004807
20
13.050166999995643
10
97.474596500004793
20
25.05016699999565
0
LWPOLYLINE
5
169
100
AcDbEntity
8
0
100
AcDbPolyline
90
8
70
1
43
0.0
10
-3.2254034999952275
20
45.100166999995643
10
-2.2254034999952488
20
44.100166999995658
10
-2.2254034999952488
20
32.100166999995643
10
-3.2254034999952275
20
31.100166999995643
10
-15.825403499995243
20
31.100166999995643
10
-16.825403499995222
20
32.100166999995643
10
-16.82540349999524
20
44.100166999995658
10
-15.825403499995243
20
45.10016699999565
0
LWPOLYLINE
5
170
100
AcDbEntity
8
0
100
AcDbPolyline
90
8
70
1
43
0.0
10
73.974596500004779
20
44.100166999995658
10
73.974596500004779
20
32.100166999995643
10
72.974596500004822
20
31.100166999995643
10
60.374596500004799
20
31.100166999995643
10
59.374596500004813
20
32.100166999995643
10
59.374596500004813
20
44.100166999995658
10
60.374596500004799
20
45.10016699999565
10
72.974596500004822
20
45.100166999995643
0
LWPOLYLINE
5
171
100
AcDbEntity
8
0
100
AcDbPolyline
90
8
70
1
43
0.0
10
41.324596500004809
20
31.100166999995643
10
40.32459650000483
20
32.100166999995643
10
40.324596500004816
20
44.100166999995658
10
41.324596500004809
20
45.10016699999565
10
53.924596500004824
20
45.100166999995643
10
54.924596500004803
20
44.100166999995658
10
54.924596500004803
20
32.100166999995643
10
53.924596500004824
20
31.100166999995643
0
LWPOLYLINE
5
172
100
AcDbEntity
8
0
100
AcDbPolyline
90
8
70
1
43
0.0
10
-40.325403499995225
20
32.100166999995643
10
-41.325403499995225
20
31.100166999995643
10
-53.92540349999522
20
31.100166999995643
10
-54.92540349999522
20
32.100166999995643
10
-54.925403499995227
20
44.100166999995658
10
-53.92540349999522
20
45.10016699999565
10
-41.325403499995225
20
45.100166999995643
10
-40.325403499995225
20
44.100166999995658
0
LWPOLYLINE
5
173
100
AcDbEntity
8
0
100
AcDbPolyline
90
8
70
1
43
0.0
10
40.32459650000483
20
-44.099833000004367
10
40.324596500004816
20
-32.099833000004374
10
41.324596500004809
20
-31.099833000004374
10
53.924596500004824
20
-31.099833000004374
10
54.924596500004803
20
-32.099833000004374
10
54.924596500004803
20
-44.099833000004367
10
53.924596500004824
20
-45.099833000004388
10
41.324596500004809
20
-45.099833000004388
0
CIRCLE
5
174
100
AcDbEntity
8
0
100
AcDbCircle
10
-128.5879034522776
20
51.125117017578745
30
0
40
1.3749999999999971
210
0
220
0
230
1
0
LWPOLYLINE
5
175
100
AcDbEntity
8
0
100
AcDbPolyline
90
8
70
1
43
0.0
10
-78.737903499995227
20
-44.099833000004345
10
-78.737903499995227
20
-32.099833000004352
10
-77.737903499995227
20
-31.099833000004352
10
-65.137903499995218
20
-31.099833000004363
10
-64.137903499995218
20
-32.099833000004352
10
-64.137903499995218
20
-44.099833000004345
10
-65.137903499995218
20
-45.099833000004359
10
-77.737903499995227
20
-45.099833000004359
0
LWPOLYLINE
5
176
100
AcDbEntity
8
0
100
AcDbPolyline
90
8
70
1
43
0.0
10
-107.31290349999523
20
-44.099833000004345
10
-107.31290349999524
20
-32.099833000004352
10
-106.31290349999524
20
-31.099833000004352
10
-93.712903499995207
20
-31.099833000004363
10
-92.712903499995235
20
-32.099833000004352
10
-92.712903499995235
20
-44.099833000004345
10
-93.712903499995207
20
-45.099833000004359
10
-106.31290349999524
20
-45.099833000004359
0
CIRCLE
5
177
100
AcDbEntity
8
0
100
AcDbCircle
10
-38.100403499995217
20
-19.049833000004352
30
0
40
0.89999999999999647
210
0
220
0
230
1
0
CIRCLE
5
178
100
AcDbEntity
8
0
100
AcDbCircle
10
19.049596500004785
20
0.00016699999563662971
30
0
40
0.89999999999999647
210
0
220
0
230
1
0
CIRCLE
5
179
100
AcDbEntity
8
0
100
AcDbCircle
10
38.099596500004779
20
-19.049833000004352
30
0
40
0.89999999999999647
210
0
220
0
230
1
0
CIRCLE
5
180
100
AcDbEntity
8
0
100
AcDbCircle
10
-109.53790349999522
20
-38.099833000004367
30
0
40
0.89999999999999647
210
0
220
0
230
1
0
CIRCLE
5
181
100
AcDbEntity
8
0
100
AcDbCircle
10
4.5000047954601996e-06
20
19.05004699999564
30
0
40
0.89999999999999647
210
0
220
0
230
1
0
CIRCLE
5
182
100
AcDbEntity
8
0
100
AcDbCircle
10
38.100100500004785
20
19.05004699999564
30
0
40
0.89999999999999647
210
0
220
0
230
1
0
CIRCLE
5
183
100
AcDbEntity
8
0
100
AcDbCircle
10
-76.200187499995224
20
19.05004699999564
30
0
40
0.89999999999999647
210
0
220
0
230
1
0
CIRCLE
5
184
100
AcDbEntity
8
0
100
AcDbCircle
10
-95.250403499995215
20
0.00016699999563662971
30
0
40
0.89999999999999647
210
0
220
0
230
1
0
CIRCLE
5
185
100
AcDbEntity
8
0
100
AcDbCircle
10
-76.200403499995247
20
-19.049833000004352
30
0
40
0.89999999999999647
210
0
220
0
230
1
0
CIRCLE
5
186
100
AcDbEntity
8
0
100
AcDbCircle
10
76.199596500004802
20
-19.049833000004352
30
0
40
0.89999999999999647
210
0
220
0
230
1
0
CIRCLE
5
187
100
AcDbEntity
8
0
100
AcDbCircle
10
19.050052500004803
20
38.100094999995648
30
0
40
0.89999999999999647
210
0
220
0
230
1
0
CIRCLE
5
188
100
AcDbEntity
8
0
100
AcDbCircle
10
-19.050043499995208
20
38.100094999995648
30
0
40
0.89999999999999647
210
0
220
0
230
1
0
CIRCLE
5
189
100
AcDbEntity
8
0
100
AcDbCircle
10
-59.53165349999523
20
-38.099833000004367
30
0
40
0.89999999999999647
210
0
220
0
230
1
0
CIRCLE
5
190
100
AcDbEntity
8
0
100
AcDbCircle
10
116.6808465000048
20
-19.049833000004352
30
0
40
0.89999999999999647
210
0
220
0
230
1
0
CIRCLE
5
191
100
AcDbEntity
8
0
100
AcDbCircle
10
-19.050403499995227
20
0.00016699999563662971
30
0
40
0.89999999999999647
210
0
220
0
230
1
0
CIRCLE
5
192
100
AcDbEntity
8
0
100
AcDbCircle
10
138.11209650000478
20
0.00016699999563662971
30
0
40
0.89999999999999647
210
0
220
0
230
1
0
CIRCLE
5
193
100
AcDbEntity
8
0
100
AcDbCircle
10
57.150148500004796
20
38.100094999995648
30
0
40
0.89999999999999647
210
0
220
0
230
1
0
LWPOLYLINE
5
194
100
AcDbEntity
8
0
100
AcDbPolyline
90
8
70
1
43
0.0
10
-59.37540349999523
20
44.100166999995658
10
-59.37540349999523
20
32.100166999995643
10
-60.375403499995215
20
31.100166999995643
10
-72.975403499995224
20
31.100166999995643
10
-73.975403499995181
20
32.100166999995643
10
-73.975403499995224
20
44.100166999995658
10
-72.975403499995224
20
45.10016699999565
10
-60.375403499995215
20
45.100166999995643
0
LWPOLYLINE
5
195
100
AcDbEntity
8
0
100
AcDbPolyline
90
8
70
1
43
0.0
10
3.2245965000047683
20
45.10016699999565
10
15.824596500004786
20
45.100166999995643
10
16.824596500004766
20
44.100166999995658
10
16.824596500004766
20
32.100166999995643
10
15.824596500004786
20
31.100166999995643
10
3.2245965000047683
20
31.100166999995643
10
2.2245965000047896
20
32.100166999995643
10
2.2245965000047718
20
44.100166999995658
0
LWPOLYLINE
5
196
100
AcDbEntity
8
0
100
AcDbPolyline
90
8
70
1
43
0.0
10
35.874596500004756
20
32.100166999995643
10
34.87459650000477
20
31.100166999995643
10
22.274596500004762
20
31.100166999995643
10
21.274596500004787
20
32.100166999995643
10
21.274596500004765
20
44.100166999995658
10
22.274596500004762
20
45.10016699999565
10
34.87459650000477
20
45.100166999995643
10
35.874596500004756
20
44.100166999995658
0
LWPOLYLINE
5
197
100
AcDbEntity
8
0
100
AcDbPolyline
90
8
70
1
43
0.0
10
-35.87540349999523
20
44.100166999995658
10
-34.875403499995237
20
45.10016699999565
10
-22.275403499995218
20
45.100166999995643
10
-21.275403499995239
20
44.100166999995658
10
-21.275403499995239
20
32.100166999995643
10
-22.275403499995218
20
31.100166999995643
10
-34.875403499995237
20
31.100166999995643
10
-35.875403499995215
20
32.100166999995643
0
LWPOLYLINE
5
198
100
AcDbEntity
8
0
100
AcDbPolyline
90
8
70
1
43
0.0
10
-92.025403499995235
20
31.100166999995643
10
-93.025403499995207
20
32.100166999995643
10
-93.025403499995235
20
44.100166999995658
10
-92.025403499995235
20
45.10016699999565
10
-79.425403499995227
20
45.100166999995643
10
-78.425403499995227
20
44.100166999995658
10
-78.425403499995227
20
32.100166999995643
10
-79.425403499995227
20
31.100166999995643
0
LWPOLYLINE
5
199
100
AcDbEntity
8
0
100
AcDbPolyline
90
8
70
1
43
0.0
10
-122.28790349999521
20
31.100166999995643
10
-134.88790349999522
20
31.100166999995643
10
-135.88790349999522
20
32.100166999995643
10
-135.88790349999522
20
44.100166999995658
10
-134.88790349999522
20
45.10016699999565
10
-122.28790349999521
20
45.100166999995643
10
-121.28790349999521
20
44.100166999995658
10
-121.28790349999521
20
32.100166999995643
0
LWPOLYLINE
5
200
100
AcDbEntity
8
0
100
AcDbPolyline
90
8
70
1
43
0.0
10
-111.07540349999525
20
31.100166999995643
10
-112.07540349999522
20
32.100166999995643
10
-112.07540349999522
20
44.100166999995658
10
-111.07540349999525
20
45.10016699999565
10
-98.47540349999521
20
45.100166999995643
10
-97.475403499995252
20
44.100166999995658
10
-97.475403499995252
20
32.100166999995643
10
-98.47540349999521
20
31.100166999995643
0
CIRCLE
5
201
100
AcDbEntity
8
0
100
AcDbCircle
10
128.58790641916951
20
51.125117017578745
30
0
40
1.3749999999999971
210
0
220
0
230
1
0
CIRCLE
5
202
100
AcDbEntity
8
0
100
AcDbCircle
10
-104.77540349999522
20
-51.12511350375204
30
0
40
1.3750000000000029
210
0
220
0
230
1
0
CIRCLE
5
203
100
AcDbEntity
8
0
100
AcDbCircle
10
47.625406466887128
20
51.125117017578745
30
0
40
1.3750000000000029
210
0
220
0
230
1
0
CIRCLE
5
204
100
AcDbEntity
8
0
100
AcDbCircle
10
104.77459650000471
20
-51.12511350375204
30
0
40
1.3750000000000029
210
0
220
0
230
1
0
CIRCLE
5
205
100
AcDbEntity
8
0
100
AcDbCircle
10
95.250244500004783
20
38.100094999995648
30
0
40
0.89999999999999647
210
0
220
0
230
1
0
CIRCLE
5
206
100
AcDbEntity
8
0
100
AcDbCircle
10
138.11285250000483
20
38.100094999995648
30
0
40
0.89999999999999647
210
0
220
0
230
1
0
CIRCLE
5
207
100
AcDbEntity
8
0
100
AcDbCircle
10
-47.625403499995222
20
51.125117017578745
30
0
40
1.3750000000000029
210
0
220
0
230
1
0
LWPOLYLINE
5
208
100
AcDbEntity
8
0
100
AcDbPolyline
90
8
70
1
43
0.0
10
122.28709650000482
20
-12.049833000004355
10
134.88709650000484
20
-12.049833000004366
10
135.88709650000482
20
-13.049833000004361
10
135.88709650000482
20
-25.049833000004362
10
134.88709650000484
20
-26.049833000004377
10
122.28709650000482
20
-26.049833000004377
10
121.28709650000486
20
-25.049833000004377
10
121.28709650000481
20
-13.049833000004361
0
ENDSEC
0
SECTION
2
OBJECTS
0
DICTIONARY
5
C
100
AcDbDictionary
3
ACAD_GROUP
350
D
3
ACAD_MLINESTYLE
350
17
0
DICTIONARY
5
D
100
AcDbDictionary
0
DICTIONARY
5
1A
330
C
100
AcDbDictionary
0
DICTIONARY
5
17
100
AcDbDictionary
0
ENDSEC
0
EOF
