0
SECTION
2
HEADER
9
$INSUNITS
70
4
9
$ACADVER
1
AC1014
9
$HANDSEED
5
FFFF
0
ENDSEC
0
SECTION
2
TABLES
0
TABLE
2
VPORT
5
8
100
AcDbSymbolTable
0
ENDTAB
0
TABLE
2
LTYPE
5
5
100
AcDbSymbolTable
0
LTYPE
5
14
100
AcDbSymbolTableRecord
100
AcDbLinetypeTableRecord
2
BYBLOCK
70
0
0
LTYPE
5
15
100
AcDbSymbolTableRecord
100
AcDbLinetypeTableRecord
2
BYLAYER
70
0
0
ENDTAB
0
TABLE
2
LAYER
5
2
100
AcDbSymbolTable
70
2
0
LAYER
5
50
100
AcDbSymbolTableRecord
100
AcDbLayerTableRecord
2
0
70
0
6
CONTINUOUS
0
ENDTAB
0
TABLE
2
STYLE
5
3
100
AcDbSymbolTable
70
1
0
STYLE
5
11
100
AcDbSymbolTableRecord
100
AcDbTextStyleTableRecord
2
STANDARD
70
0
0
ENDTAB
0
TABLE
2
VIEW
5
6
100
AcDbSymbolTable
70
0
0
ENDTAB
0
TABLE
2
UCS
5
7
100
AcDbSymbolTable
70
0
0
ENDTAB
0
TABLE
2
APPID
5
9
100
AcDbSymbolTable
70
2
0
APPID
5
12
100
AcDbSymbolTableRecord
100
AcDbRegAppTableRecord
2
ACAD
70
0
0
ENDTAB
0
TABLE
2
DIMSTYLE
5
A
100
AcDbSymbolTable
70
1
0
ENDTAB
0
TABLE
2
BLOCK_RECORD
5
1
100
AcDbSymbolTable
70
1
0
BLOCK_RECORD
5
1F
100
AcDbSymbolTableRecord
100
AcDbBlockTableRecord
2
*MODEL_SPACE
0
BLOCK_RECORD
5
1B
100
AcDbSymbolTableRecord
100
AcDbBlockTableRecord
2
*PAPER_SPACE
0
ENDTAB
0
ENDSEC
0
SECTION
2
BLOCKS
0
BLOCK
5
20
100
AcDbEntity
100
AcDbBlockBegin
2
*MODEL_SPACE
0
ENDBLK
5
21
100
AcDbEntity
100
AcDbBlockEnd
0
BLOCK
5
1C
100
AcDbEntity
100
AcDbBlockBegin
2
*PAPER_SPACE
0
ENDBLK
5
1D
100
AcDbEntity
100
AcDbBlockEnd
0
ENDSEC
0
SECTION
2
ENTITIES
0
LWPOLYLINE
5
100
100
AcDbEntity
8
0
100
AcDbPolyline
90
8
70
1
43
0.0
10
-122.28790349999521
20
31.10016699999564
10
-134.88790349999522
20
31.10016699999564
10
-135.88790349999522
20
32.100166999995643
10
-135.88790349999522
20
44.10016699999565
10
-134.88790349999522
20
45.10016699999565
10
-122.28790349999521
20
45.100166999995643
10
-121.28790349999522
20
44.10016699999565
10
-121.28790349999522
20
32.100166999995643
0
LWPOLYLINE
5
101
100
AcDbEntity
8
0
100
AcDbPolyline
90
8
70
1
43
0.0
10
-98.47540349999521
20
31.10016699999564
10
-111.07540349999523
20
31.10016699999564
10
-112.0754034999952
20
32.100166999995643
10
-112.07540349999522
20
44.10016699999565
10
-111.07540349999523
20
45.10016699999565
10
-98.47540349999521
20
45.100166999995643
10
-97.475403499995238
20
44.10016699999565
10
-97.475403499995238
20
32.100166999995643
0
LWPOLYLINE
5
102
100
AcDbEntity
8
0
100
AcDbPolyline
90
8
70
1
43
0.0
10
-79.425403499995213
20
31.10016699999564
10
-92.025403499995235
20
31.10016699999564
10
-93.025403499995207
20
32.100166999995643
10
-93.025403499995235
20
44.10016699999565
10
-92.025403499995235
20
45.10016699999565
10
-79.425403499995213
20
45.100166999995643
10
-78.425403499995241
20
44.10016699999565
10
-78.425403499995241
20
32.100166999995643
0
LWPOLYLINE
5
103
100
AcDbEntity
8
0
100
AcDbPolyline
90
8
70
1
43
0.0
10
-60.375403499995208
20
31.10016699999564
10
-72.975403499995224
20
31.10016699999564
10
-73.975403499995195
20
32.100166999995643
10
-73.975403499995224
20
44.10016699999565
10
-72.975403499995224
20
45.10016699999565
10
-60.375403499995208
20
45.100166999995643
10
-59.37540349999523
20
44.10016699999565
10
-59.37540349999523
20
32.100166999995643
0
LWPOLYLINE
5
104
100
AcDbEntity
8
0
100
AcDbPolyline
90
8
70
1
43
0.0
10
-53.925403499995227
20
45.10016699999565
10
-41.325403499995218
20
45.100166999995643
10
-40.325403499995232
20
44.10016699999565
10
-40.325403499995232
20
32.100166999995643
10
-41.325403499995218
20
31.10016699999564
10
-53.925403499995227
20
31.10016699999564
10
-54.925403499995213
20
32.100166999995643
10
-54.925403499995227
20
44.10016699999565
0
LWPOLYLINE
5
105
100
AcDbEntity
8
0
100
AcDbPolyline
90
8
70
1
43
0.0
10
-22.275403499995221
20
31.10016699999564
10
-34.875403499995237
20
31.10016699999564
10
-35.875403499995215
20
32.100166999995643
10
-35.87540349999523
20
44.10016699999565
10
-34.875403499995237
20
45.10016699999565
10
-22.275403499995221
20
45.100166999995643
10
-21.275403499995242
20
44.10016699999565
10
-21.275403499995242
20
32.100166999995643
0
LWPOLYLINE
5
106
100
AcDbEntity
8
0
100
AcDbPolyline
90
8
70
1
43
0.0
10
-3.2254034999952275
20
31.10016699999564
10
-15.825403499995243
20
31.10016699999564
10
-16.825403499995222
20
32.100166999995643
10
-16.82540349999524
20
44.10016699999565
10
-15.825403499995243
20
45.10016699999565
10
-3.2254034999952275
20
45.100166999995643
10
-2.2254034999952488
20
44.10016699999565
10
-2.2254034999952488
20
32.100166999995643
0
LWPOLYLINE
5
107
100
AcDbEntity
8
0
100
AcDbPolyline
90
8
70
1
43
0.0
10
15.824596500004784
20
31.10016699999564
10
3.2245965000047683
20
31.10016699999564
10
2.2245965000047896
20
32.100166999995643
10
2.2245965000047718
20
44.10016699999565
10
3.2245965000047683
20
45.10016699999565
10
15.824596500004784
20
45.100166999995643
10
16.824596500004763
20
44.10016699999565
10
16.824596500004763
20
32.100166999995643
0
LWPOLYLINE
5
108
100
AcDbEntity
8
0
100
AcDbPolyline
90
8
70
1
43
0.0
10
22.274596500004762
20
45.10016699999565
10
34.874596500004778
20
45.100166999995643
10
35.874596500004756
20
44.10016699999565
10
35.874596500004756
20
32.100166999995643
10
34.874596500004778
20
31.10016699999564
10
22.274596500004762
20
31.10016699999564
10
21.274596500004783
20
32.100166999995643
10
21.274596500004765
20
44.10016699999565
0
LWPOLYLINE
5
109
100
AcDbEntity
8
0
100
AcDbPolyline
90
8
70
1
43
0.0
10
53.924596500004824
20
31.10016699999564
10
41.324596500004809
20
31.10016699999564
10
40.32459650000483
20
32.100166999995643
10
40.324596500004816
20
44.10016699999565
10
41.324596500004809
20
45.10016699999565
10
53.924596500004824
20
45.100166999995643
10
54.924596500004803
20
44.10016699999565
10
54.924596500004803
20
32.100166999995643
0
LWPOLYLINE
5
110
100
AcDbEntity
8
0
100
AcDbPolyline
90
8
70
1
43
0.0
10
72.974596500004822
20
31.10016699999564
10
60.374596500004799
20
31.10016699999564
10
59.374596500004827
20
32.100166999995643
10
59.374596500004806
20
44.10016699999565
10
60.374596500004799
20
45.10016699999565
10
72.974596500004822
20
45.100166999995643
10
73.974596500004793
20
44.10016699999565
10
73.974596500004793
20
32.100166999995643
0
LWPOLYLINE
5
111
100
AcDbEntity
8
0
100
AcDbPolyline
90
8
70
1
43
0.0
10
92.024596500004833
20
31.10016699999564
10
79.42459650000481
20
31.10016699999564
10
78.424596500004839
20
32.100166999995643
10
78.42459650000481
20
44.10016699999565
10
79.42459650000481
20
45.10016699999565
10
92.024596500004833
20
45.100166999995643
10
93.024596500004805
20
44.10016699999565
10
93.024596500004805
20
32.100166999995643
0
LWPOLYLINE
5
112
100
AcDbEntity
8
0
100
AcDbPolyline
90
8
70
1
43
0.0
10
98.474596500004807
20
45.10016699999565
10
111.07459650000482
20
45.100166999995643
10
112.0745965000048
20
44.10016699999565
10
112.0745965000048
20
32.100166999995643
10
111.07459650000482
20
31.10016699999564
10
98.474596500004807
20
31.10016699999564
10
97.474596500004822
20
32.100166999995643
10
97.474596500004807
20
44.10016699999565
0
LWPOLYLINE
5
113
100
AcDbEntity
8
0
100
AcDbPolyline
90
8
70
1
43
0.0
10
134.88709650000484
20
31.10016699999564
10
122.28709650000482
20
31.10016699999564
10
121.28709650000485
20
32.100166999995643
10
121.28709650000482
20
44.10016699999565
10
122.28709650000482
20
45.10016699999565
10
134.88709650000484
20
45.100166999995643
10
135.88709650000482
20
44.10016699999565
10
135.88709650000482
20
32.100166999995643
0
LWPOLYLINE
5
114
100
AcDbEntity
8
0
100
AcDbPolyline
90
8
70
1
43
0.0
10
-93.025403499995207
20
13.050166999995639
10
-93.025403499995235
20
25.050166999995646
10
-92.025403499995235
20
26.05016699999565
10
-79.425403499995213
20
26.050166999995639
10
-78.425403499995241
20
25.050166999995646
10
-78.425403499995241
20
13.050166999995643
10
-79.425403499995213
20
12.050166999995637
10
-92.025403499995235
20
12.050166999995637
0
LWPOLYLINE
5
115
100
AcDbEntity
8
0
100
AcDbPolyline
90
8
70
1
43
0.0
10
-54.925403499995227
20
25.050166999995646
10
-53.925403499995227
20
26.05016699999565
10
-41.325403499995218
20
26.050166999995639
10
-40.325403499995232
20
25.050166999995646
10
-40.325403499995232
20
13.050166999995643
10
-41.325403499995218
20
12.050166999995637
10
-53.925403499995227
20
12.050166999995637
10
-54.925403499995213
20
13.050166999995639
0
LWPOLYLINE
5
116
100
AcDbEntity
8
0
100
AcDbPolyline
90
8
70
1
43
0.0
10
35.874596500004756
20
25.050166999995646
10
35.874596500004756
20
13.050166999995643
10
34.874596500004778
20
12.050166999995637
10
22.274596500004762
20
12.050166999995637
10
21.274596500004783
20
13.050166999995639
10
21.274596500004765
20
25.050166999995646
10
22.274596500004762
20
26.05016699999565
10
34.874596500004778
20
26.050166999995639
0
LWPOLYLINE
5
117
100
AcDbEntity
8
0
100
AcDbPolyline
90
8
70
1
43
0.0
10
-98.47540349999521
20
12.050166999995637
10
-111.07540349999523
20
12.050166999995637
10
-112.0754034999952
20
13.050166999995639
10
-112.07540349999522
20
25.050166999995646
10
-111.07540349999523
20
26.05016699999565
10
-98.47540349999521
20
26.050166999995639
10
-97.475403499995238
20
25.050166999995646
10
-97.475403499995238
20
13.050166999995643
0
LWPOLYLINE
5
118
100
AcDbEntity
8
0
100
AcDbPolyline
90
8
70
1
43
0.0
10
-134.88790349999522
20
12.050166999995637
10
-135.88790349999522
20
13.050166999995639
10
-135.88790349999522
20
25.050166999995646
10
-134.88790349999522
20
26.05016699999565
10
-122.28790349999521
20
26.050166999995639
10
-121.28790349999522
20
25.050166999995646
10
-121.28790349999522
20
13.050166999995643
10
-122.28790349999521
20
12.050166999995637
0
LWPOLYLINE
5
119
100
AcDbEntity
8
0
100
AcDbPolyline
90
8
70
1
43
0.0
10
-3.2254034999952275
20
12.050166999995637
10
-15.825403499995243
20
12.050166999995637
10
-16.825403499995222
20
13.050166999995639
10
-16.82540349999524
20
25.050166999995646
10
-15.825403499995243
20
26.05016699999565
10
-3.2254034999952275
20
26.050166999995639
10
-2.2254034999952488
20
25.050166999995646
10
-2.2254034999952488
20
13.050166999995643
0
LWPOLYLINE
5
120
100
AcDbEntity
8
0
100
AcDbPolyline
90
8
70
1
43
0.0
10
112.0745965000048
20
25.050166999995646
10
112.0745965000048
20
13.050166999995643
10
111.07459650000482
20
12.050166999995637
10
98.474596500004807
20
12.050166999995637
10
97.474596500004822
20
13.050166999995639
10
97.474596500004807
20
25.050166999995646
10
98.474596500004807
20
26.05016699999565
10
111.07459650000482
20
26.050166999995639
0
LWPOLYLINE
5
121
100
AcDbEntity
8
0
100
AcDbPolyline
90
8
70
1
43
0.0
10
92.024596500004833
20
26.050166999995639
10
93.024596500004805
20
25.050166999995646
10
93.024596500004805
20
13.050166999995643
10
92.024596500004833
20
12.050166999995637
10
79.42459650000481
20
12.050166999995637
10
78.424596500004839
20
13.050166999995639
10
78.42459650000481
20
25.050166999995646
10
79.42459650000481
20
26.05016699999565
0
LWPOLYLINE
5
122
100
AcDbEntity
8
0
100
AcDbPolyline
90
8
70
1
43
0.0
10
122.28709650000482
20
26.05016699999565
10
134.88709650000484
20
26.050166999995639
10
135.88709650000482
20
25.050166999995646
10
135.88709650000482
20
13.050166999995643
10
134.88709650000484
20
12.050166999995637
10
122.28709650000482
20
12.050166999995637
10
121.28709650000485
20
13.050166999995639
10
121.28709650000482
20
25.050166999995646
0
LWPOLYLINE
5
123
100
AcDbEntity
8
0
100
AcDbPolyline
90
8
70
1
43
0.0
10
-21.275403499995242
20
13.050166999995643
10
-22.275403499995221
20
12.050166999995637
10
-34.875403499995237
20
12.050166999995637
10
-35.875403499995215
20
13.050166999995639
10
-35.87540349999523
20
25.050166999995646
10
-34.875403499995237
20
26.05016699999565
10
-22.275403499995221
20
26.050166999995639
10
-21.275403499995242
20
25.050166999995646
0
LWPOLYLINE
5
124
100
AcDbEntity
8
0
100
AcDbPolyline
90
8
70
1
43
0.0
10
73.974596500004793
20
13.050166999995643
10
72.974596500004822
20
12.050166999995637
10
60.374596500004799
20
12.050166999995637
10
59.374596500004827
20
13.050166999995639
10
59.374596500004806
20
25.050166999995646
10
60.374596500004799
20
26.05016699999565
10
72.974596500004822
20
26.050166999995639
10
73.974596500004793
20
25.050166999995646
0
LWPOLYLINE
5
125
100
AcDbEntity
8
0
100
AcDbPolyline
90
8
70
1
43
0.0
10
15.824596500004784
20
12.050166999995637
10
3.2245965000047683
20
12.050166999995637
10
2.2245965000047896
20
13.050166999995639
10
2.2245965000047718
20
25.050166999995646
10
3.2245965000047683
20
26.05016699999565
10
15.824596500004784
20
26.050166999995639
10
16.824596500004763
20
25.050166999995646
10
16.824596500004763
20
13.050166999995643
0
LWPOLYLINE
5
126
100
AcDbEntity
8
0
100
AcDbPolyline
90
8
70
1
43
0.0
10
40.32459650000483
20
13.050166999995639
10
40.324596500004816
20
25.050166999995646
10
41.324596500004809
20
26.05016699999565
10
53.924596500004824
20
26.050166999995639
10
54.924596500004803
20
25.050166999995646
10
54.924596500004803
20
13.050166999995643
10
53.924596500004824
20
12.050166999995637
10
41.324596500004809
20
12.050166999995637
0
LWPOLYLINE
5
127
100
AcDbEntity
8
0
100
AcDbPolyline
90
8
70
1
43
0.0
10
-72.975403499995224
20
26.05016699999565
10
-60.375403499995208
20
26.050166999995639
10
-59.37540349999523
20
25.050166999995646
10
-59.37540349999523
20
13.050166999995643
10
-60.375403499995208
20
12.050166999995637
10
-72.975403499995224
20
12.050166999995637
10
-73.975403499995195
20
13.050166999995639
10
-73.975403499995224
20
25.050166999995646
0
LWPOLYLINE
5
128
100
AcDbEntity
8
0
100
AcDbPolyline
90
8
70
1
43
0.0
10
-93.025403499995207
20
-5.9998330000043643
10
-93.025403499995235
20
6.000166999995642
10
-92.025403499995235
20
7.0001669999956473
10
-79.425403499995213
20
7.0001669999956384
10
-78.425403499995241
20
6.000166999995642
10
-78.425403499995241
20
-5.9998330000043598
10
-79.425403499995213
20
-6.9998330000043651
10
-92.025403499995235
20
-6.9998330000043651
0
LWPOLYLINE
5
129
100
AcDbEntity
8
0
100
AcDbPolyline
90
8
70
1
43
0.0
10
-54.925403499995227
20
6.000166999995642
10
-53.925403499995227
20
7.0001669999956473
10
-41.325403499995218
20
7.0001669999956384
10
-40.325403499995232
20
6.000166999995642
10
-40.325403499995232
20
-5.9998330000043598
10
-41.325403499995218
20
-6.9998330000043651
10
-53.925403499995227
20
-6.9998330000043651
10
-54.925403499995213
20
-5.9998330000043643
0
LWPOLYLINE
5
130
100
AcDbEntity
8
0
100
AcDbPolyline
90
8
70
1
43
0.0
10
35.874596500004756
20
6.000166999995642
10
35.874596500004756
20
-5.9998330000043598
10
34.874596500004778
20
-6.9998330000043651
10
22.274596500004762
20
-6.9998330000043651
10
21.274596500004783
20
-5.9998330000043643
10
21.274596500004765
20
6.000166999995642
10
22.274596500004762
20
7.0001669999956473
10
34.874596500004778
20
7.0001669999956384
0
LWPOLYLINE
5
131
100
AcDbEntity
8
0
100
AcDbPolyline
90
8
70
1
43
0.0
10
-98.47540349999521
20
-6.9998330000043651
10
-111.07540349999523
20
-6.9998330000043651
10
-112.0754034999952
20
-5.9998330000043643
10
-112.07540349999522
20
6.000166999995642
10
-111.07540349999523
20
7.0001669999956473
10
-98.47540349999521
20
7.0001669999956384
10
-97.475403499995238
20
6.000166999995642
10
-97.475403499995238
20
-5.9998330000043598
0
LWPOLYLINE
5
132
100
AcDbEntity
8
0
100
AcDbPolyline
90
8
70
1
43
0.0
10
-134.88790349999522
20
-6.9998330000043651
10
-135.88790349999522
20
-5.9998330000043643
10
-135.88790349999522
20
6.000166999995642
10
-134.88790349999522
20
7.0001669999956473
10
-122.28790349999521
20
7.0001669999956384
10
-121.28790349999522
20
6.000166999995642
10
-121.28790349999522
20
-5.9998330000043598
10
-122.28790349999521
20
-6.9998330000043651
0
LWPOLYLINE
5
133
100
AcDbEntity
8
0
100
AcDbPolyline
90
8
70
1
43
0.0
10
-3.2254034999952275
20
-6.9998330000043651
10
-15.825403499995243
20
-6.9998330000043651
10
-16.825403499995222
20
-5.9998330000043643
10
-16.82540349999524
20
6.000166999995642
10
-15.825403499995243
20
7.0001669999956473
10
-3.2254034999952275
20
7.0001669999956384
10
-2.2254034999952488
20
6.000166999995642
10
-2.2254034999952488
20
-5.9998330000043598
0
LWPOLYLINE
5
134
100
AcDbEntity
8
0
100
AcDbPolyline
90
8
70
1
43
0.0
10
112.0745965000048
20
6.000166999995642
10
112.0745965000048
20
-5.9998330000043598
10
111.07459650000482
20
-6.9998330000043651
10
98.474596500004807
20
-6.9998330000043651
10
97.474596500004822
20
-5.9998330000043643
10
97.474596500004807
20
6.000166999995642
10
98.474596500004807
20
7.0001669999956473
10
111.07459650000482
20
7.0001669999956384
0
LWPOLYLINE
5
135
100
AcDbEntity
8
0
100
AcDbPolyline
90
8
70
1
43
0.0
10
92.024596500004833
20
7.0001669999956384
10
93.024596500004805
20
6.000166999995642
10
93.024596500004805
20
-5.9998330000043598
10
92.024596500004833
20
-6.9998330000043651
10
79.42459650000481
20
-6.9998330000043651
10
78.424596500004839
20
-5.9998330000043643
10
78.42459650000481
20
6.000166999995642
10
79.42459650000481
20
7.0001669999956473
0
LWPOLYLINE
5
136
100
AcDbEntity
8
0
100
AcDbPolyline
90
8
70
1
43
0.0
10
122.28709650000482
20
7.0001669999956473
10
134.88709650000484
20
7.0001669999956384
10
135.88709650000482
20
6.000166999995642
10
135.88709650000482
20
-5.9998330000043598
10
134.88709650000484
20
-6.9998330000043651
10
122.28709650000482
20
-6.9998330000043651
10
121.28709650000485
20
-5.9998330000043643
10
121.28709650000482
20
6.000166999995642
0
LWPOLYLINE
5
137
100
AcDbEntity
8
0
100
AcDbPolyline
90
8
70
1
43
0.0
10
-21.275403499995242
20
-5.9998330000043598
10
-22.275403499995221
20
-6.9998330000043651
10
-34.875403499995237
20
-6.9998330000043651
10
-35.875403499995215
20
-5.9998330000043643
10
-35.87540349999523
20
6.000166999995642
10
-34.875403499995237
20
7.0001669999956473
10
-22.275403499995221
20
7.0001669999956384
10
-21.275403499995242
20
6.000166999995642
0
LWPOLYLINE
5
138
100
AcDbEntity
8
0
100
AcDbPolyline
90
8
70
1
43
0.0
10
73.974596500004793
20
-5.9998330000043598
10
72.974596500004822
20
-6.9998330000043651
10
60.374596500004799
20
-6.9998330000043651
10
59.374596500004827
20
-5.9998330000043643
10
59.374596500004806
20
6.000166999995642
10
60.374596500004799
20
7.0001669999956473
10
72.974596500004822
20
7.0001669999956384
10
73.974596500004793
20
6.000166999995642
0
LWPOLYLINE
5
139
100
AcDbEntity
8
0
100
AcDbPolyline
90
8
70
1
43
0.0
10
15.824596500004784
20
-6.9998330000043651
10
3.2245965000047683
20
-6.9998330000043651
10
2.2245965000047896
20
-5.9998330000043643
10
2.2245965000047718
20
6.000166999995642
10
3.2245965000047683
20
7.0001669999956473
10
15.824596500004784
20
7.0001669999956384
10
16.824596500004763
20
6.000166999995642
10
16.824596500004763
20
-5.9998330000043598
0
LWPOLYLINE
5
140
100
AcDbEntity
8
0
100
AcDbPolyline
90
8
70
1
43
0.0
10
40.32459650000483
20
-5.9998330000043643
10
40.324596500004816
20
6.000166999995642
10
41.324596500004809
20
7.0001669999956473
10
53.924596500004824
20
7.0001669999956384
10
54.924596500004803
20
6.000166999995642
10
54.924596500004803
20
-5.9998330000043598
10
53.924596500004824
20
-6.9998330000043651
10
41.324596500004809
20
-6.9998330000043651
0
LWPOLYLINE
5
141
100
AcDbEntity
8
0
100
AcDbPolyline
90
8
70
1
43
0.0
10
-72.975403499995224
20
7.0001669999956473
10
-60.375403499995208
20
7.0001669999956384
10
-59.37540349999523
20
6.000166999995642
10
-59.37540349999523
20
-5.9998330000043598
10
-60.375403499995208
20
-6.9998330000043651
10
-72.975403499995224
20
-6.9998330000043651
10
-73.975403499995195
20
-5.9998330000043643
10
-73.975403499995224
20
6.000166999995642
0
LWPOLYLINE
5
142
100
AcDbEntity
8
0
100
AcDbPolyline
90
8
70
1
43
0.0
10
-93.025403499995207
20
-25.049833000004366
10
-93.025403499995235
20
-13.049833000004361
10
-92.025403499995235
20
-12.049833000004355
10
-79.425403499995213
20
-12.049833000004364
10
-78.425403499995241
20
-13.049833000004361
10
-78.425403499995241
20
-25.049833000004362
10
-79.425403499995213
20
-26.049833000004369
10
-92.025403499995235
20
-26.049833000004369
0
LWPOLYLINE
5
143
100
AcDbEntity
8
0
100
AcDbPolyline
90
8
70
1
43
0.0
10
-54.925403499995227
20
-13.049833000004361
10
-53.925403499995227
20
-12.049833000004355
10
-41.325403499995218
20
-12.049833000004364
10
-40.325403499995232
20
-13.049833000004361
10
-40.325403499995232
20
-25.049833000004362
10
-41.325403499995218
20
-26.049833000004369
10
-53.925403499995227
20
-26.049833000004369
10
-54.925403499995213
20
-25.049833000004366
0
LWPOLYLINE
5
144
100
AcDbEntity
8
0
100
AcDbPolyline
90
8
70
1
43
0.0
10
35.874596500004756
20
-13.049833000004361
10
35.874596500004756
20
-25.049833000004362
10
34.874596500004778
20
-26.049833000004369
10
22.274596500004762
20
-26.049833000004369
10
21.274596500004783
20
-25.049833000004366
10
21.274596500004765
20
-13.049833000004361
10
22.274596500004762
20
-12.049833000004355
10
34.874596500004778
20
-12.049833000004364
0
LWPOLYLINE
5
145
100
AcDbEntity
8
0
100
AcDbPolyline
90
8
70
1
43
0.0
10
-98.47540349999521
20
-26.049833000004369
10
-111.07540349999523
20
-26.049833000004369
10
-112.0754034999952
20
-25.049833000004366
10
-112.07540349999522
20
-13.049833000004361
10
-111.07540349999523
20
-12.049833000004355
10
-98.47540349999521
20
-12.049833000004364
10
-97.475403499995238
20
-13.049833000004361
10
-97.475403499995238
20
-25.049833000004362
0
LWPOLYLINE
5
146
100
AcDbEntity
8
0
100
AcDbPolyline
90
8
70
1
43
0.0
10
-134.88790349999522
20
-26.049833000004369
10
-135.88790349999522
20
-25.049833000004366
10
-135.88790349999522
20
-13.049833000004361
10
-134.88790349999522
20
-12.049833000004355
10
-122.28790349999521
20
-12.049833000004364
10
-121.28790349999522
20
-13.049833000004361
10
-121.28790349999522
20
-25.049833000004362
10
-122.28790349999521
20
-26.049833000004369
0
LWPOLYLINE
5
147
100
AcDbEntity
8
0
100
AcDbPolyline
90
8
70
1
43
0.0
10
-3.2254034999952275
20
-26.049833000004369
10
-15.825403499995243
20
-26.049833000004369
10
-16.825403499995222
20
-25.049833000004366
10
-16.82540349999524
20
-13.049833000004361
10
-15.825403499995243
20
-12.049833000004355
10
-3.2254034999952275
20
-12.049833000004364
10
-2.2254034999952488
20
-13.049833000004361
10
-2.2254034999952488
20
-25.049833000004362
0
LWPOLYLINE
5
148
100
AcDbEntity
8
0
100
AcDbPolyline
90
8
70
1
43
0.0
10
112.0745965000048
20
-13.049833000004361
10
112.0745965000048
20
-25.049833000004362
10
111.07459650000482
20
-26.049833000004369
10
98.474596500004807
20
-26.049833000004369
10
97.474596500004822
20
-25.049833000004366
10
97.474596500004807
20
-13.049833000004361
10
98.474596500004807
20
-12.049833000004355
10
111.07459650000482
20
-12.049833000004364
0
LWPOLYLINE
5
149
100
AcDbEntity
8
0
100
AcDbPolyline
90
8
70
1
43
0.0
10
92.024596500004833
20
-12.049833000004364
10
93.024596500004805
20
-13.049833000004361
10
93.024596500004805
20
-25.049833000004362
10
92.024596500004833
20
-26.049833000004369
10
79.42459650000481
20
-26.049833000004369
10
78.424596500004839
20
-25.049833000004366
10
78.42459650000481
20
-13.049833000004361
10
79.42459650000481
20
-12.049833000004355
0
LWPOLYLINE
5
150
100
AcDbEntity
8
0
100
AcDbPolyline
90
8
70
1
43
0.0
10
122.28709650000482
20
-12.049833000004355
10
134.88709650000484
20
-12.049833000004364
10
135.88709650000482
20
-13.049833000004361
10
135.88709650000482
20
-25.049833000004362
10
134.88709650000484
20
-26.049833000004369
10
122.28709650000482
20
-26.049833000004369
10
121.28709650000485
20
-25.049833000004366
10
121.28709650000482
20
-13.049833000004361
0
LWPOLYLINE
5
151
100
AcDbEntity
8
0
100
AcDbPolyline
90
8
70
1
43
0.0
10
-21.275403499995242
20
-25.049833000004362
10
-22.275403499995221
20
-26.049833000004369
10
-34.875403499995237
20
-26.049833000004369
10
-35.875403499995215
20
-25.049833000004366
10
-35.87540349999523
20
-13.049833000004361
10
-34.875403499995237
20
-12.049833000004355
10
-22.275403499995221
20
-12.049833000004364
10
-21.275403499995242
20
-13.049833000004361
0
LWPOLYLINE
5
152
100
AcDbEntity
8
0
100
AcDbPolyline
90
8
70
1
43
0.0
10
73.974596500004793
20
-25.049833000004362
10
72.974596500004822
20
-26.049833000004369
10
60.374596500004799
20
-26.049833000004369
10
59.374596500004827
20
-25.049833000004366
10
59.374596500004806
20
-13.049833000004361
10
60.374596500004799
20
-12.049833000004355
10
72.974596500004822
20
-12.049833000004364
10
73.974596500004793
20
-13.049833000004361
0
LWPOLYLINE
5
153
100
AcDbEntity
8
0
100
AcDbPolyline
90
8
70
1
43
0.0
10
15.824596500004784
20
-26.049833000004369
10
3.2245965000047683
20
-26.049833000004369
10
2.2245965000047896
20
-25.049833000004366
10
2.2245965000047718
20
-13.049833000004361
10
3.2245965000047683
20
-12.049833000004355
10
15.824596500004784
20
-12.049833000004364
10
16.824596500004763
20
-13.049833000004361
10
16.824596500004763
20
-25.049833000004362
0
LWPOLYLINE
5
154
100
AcDbEntity
8
0
100
AcDbPolyline
90
8
70
1
43
0.0
10
40.32459650000483
20
-25.049833000004366
10
40.324596500004816
20
-13.049833000004361
10
41.324596500004809
20
-12.049833000004355
10
53.924596500004824
20
-12.049833000004364
10
54.924596500004803
20
-13.049833000004361
10
54.924596500004803
20
-25.049833000004362
10
53.924596500004824
20
-26.049833000004369
10
41.324596500004809
20
-26.049833000004369
0
LWPOLYLINE
5
155
100
AcDbEntity
8
0
100
AcDbPolyline
90
8
70
1
43
0.0
10
-72.975403499995224
20
-12.049833000004355
10
-60.375403499995208
20
-12.049833000004364
10
-59.37540349999523
20
-13.049833000004361
10
-59.37540349999523
20
-25.049833000004362
10
-60.375403499995208
20
-26.049833000004369
10
-72.975403499995224
20
-26.049833000004369
10
-73.975403499995195
20
-25.049833000004366
10
-73.975403499995224
20
-13.049833000004361
0
LWPOLYLINE
5
156
100
AcDbEntity
8
0
100
AcDbPolyline
90
8
70
1
43
0.0
10
-54.925403499995227
20
-32.099833000004374
10
-53.925403499995227
20
-31.099833000004367
10
-41.325403499995218
20
-31.099833000004374
10
-40.325403499995232
20
-32.099833000004374
10
-40.325403499995232
20
-44.099833000004374
10
-41.325403499995218
20
-45.099833000004381
10
-53.925403499995227
20
-45.099833000004381
10
-54.925403499995213
20
-44.099833000004374
0
LWPOLYLINE
5
157
100
AcDbEntity
8
0
100
AcDbPolyline
90
8
70
1
43
0.0
10
112.0745965000048
20
-32.099833000004374
10
112.0745965000048
20
-44.099833000004374
10
111.07459650000482
20
-45.099833000004381
10
98.474596500004807
20
-45.099833000004381
10
97.474596500004822
20
-44.099833000004374
10
97.474596500004807
20
-32.099833000004374
10
98.474596500004807
20
-31.099833000004367
10
111.07459650000482
20
-31.099833000004374
0
LWPOLYLINE
5
158
100
AcDbEntity
8
0
100
AcDbPolyline
90
8
70
1
43
0.0
10
92.024596500004833
20
-31.099833000004374
10
93.024596500004805
20
-32.099833000004374
10
93.024596500004805
20
-44.099833000004374
10
92.024596500004833
20
-45.099833000004381
10
79.42459650000481
20
-45.099833000004381
10
78.424596500004839
20
-44.099833000004374
10
78.42459650000481
20
-32.099833000004374
10
79.42459650000481
20
-31.099833000004367
0
LWPOLYLINE
5
159
100
AcDbEntity
8
0
100
AcDbPolyline
90
8
70
1
43
0.0
10
73.974596500004793
20
-44.099833000004374
10
72.974596500004822
20
-45.099833000004381
10
60.374596500004799
20
-45.099833000004381
10
59.374596500004827
20
-44.099833000004374
10
59.374596500004806
20
-32.099833000004374
10
60.374596500004799
20
-31.099833000004367
10
72.974596500004822
20
-31.099833000004374
10
73.974596500004793
20
-32.099833000004374
0
LWPOLYLINE
5
160
100
AcDbEntity
8
0
100
AcDbPolyline
90
8
70
1
43
0.0
10
40.32459650000483
20
-44.099833000004374
10
40.324596500004816
20
-32.099833000004374
10
41.324596500004809
20
-31.099833000004367
10
53.924596500004824
20
-31.099833000004374
10
54.924596500004803
20
-32.099833000004374
10
54.924596500004803
20
-44.099833000004374
10
53.924596500004824
20
-45.099833000004381
10
41.324596500004809
20
-45.099833000004381
0
LWPOLYLINE
5
161
100
AcDbEntity
8
0
100
AcDbPolyline
90
8
70
1
43
0.0
10
-93.712903499995207
20
-45.099833000004359
10
-106.31290349999523
20
-45.099833000004359
10
-107.3129034999952
20
-44.099833000004352
10
-107.31290349999523
20
-32.099833000004352
10
-106.31290349999523
20
-31.099833000004349
10
-93.712903499995207
20
-31.099833000004359
10
-92.712903499995235
20
-32.099833000004352
10
-92.712903499995235
20
-44.099833000004352
0
LWPOLYLINE
5
162
100
AcDbEntity
8
0
100
AcDbPolyline
90
8
70
1
43
0.0
10
-65.137903499995218
20
-45.099833000004359
10
-77.737903499995227
20
-45.099833000004359
10
-78.737903499995213
20
-44.099833000004352
10
-78.737903499995227
20
-32.099833000004352
10
-77.737903499995227
20
-31.099833000004349
10
-65.137903499995218
20
-31.099833000004359
10
-64.137903499995232
20
-32.099833000004352
10
-64.137903499995232
20
-44.099833000004352
0
ARC
5
163
100
AcDbEntity
8
0
100
AcDbCircle
10
-140.87535404420979
20
45.625117017578759
30
0
40
1.999999999999984
210
0
220
-0
230
1
100
AcDbArc
50
90
51
180
0
ARC
5
164
100
AcDbEntity
8
0
100
AcDbCircle
10
140.87535701110167
20
45.625117017578745
30
0
40
1.9999999999999929
210
-0
220
0
230
1
100
AcDbArc
50
0
51
90
0
ARC
5
165
100
AcDbEntity
8
0
100
AcDbCircle
10
140.87535701110167
20
-45.62511350375204
30
0
40
1.9999999999999929
210
-0
220
0
230
1
100
AcDbArc
50
-89.99999999999919
51
0
0
ARC
5
166
100
AcDbEntity
8
0
100
AcDbCircle
10
-140.87535404420979
20
-45.62511350375204
30
0
40
1.9999999999999929
210
0
220
0
230
1
100
AcDbArc
50
180
51
270.0000000000008
0
LINE
5
167
100
AcDbEntity
8
0
100
AcDbLine
10
142.87535701110167
20
45.625117017578738
30
0
11
142.87535701110167
21
-45.625113503752033
31
0
0
LINE
5
168
100
AcDbEntity
8
0
100
AcDbLine
10
-142.87535404420976
20
-45.625113503752033
30
0
11
-142.87535404420976
21
45.625117017578731
31
0
0
CIRCLE
5
169
100
AcDbEntity
8
0
100
AcDbCircle
10
-128.5879034522776
20
50.125117017578738
30
0
40
1.3749999999999971
210
0
220
0
230
1
0
LINE
5
170
100
AcDbEntity
8
0
100
AcDbLine
10
-131.0879034522776
20
50.125117017578738
30
0
11
-131.0879034522776
21
48.625117017578738
31
0
0
LINE
5
171
100
AcDbEntity
8
0
100
AcDbLine
10
-126.0879034522776
20
50.125117017578738
30
0
11
-126.0879034522776
21
48.625117017578738
31
0
0
ARC
5
172
100
AcDbEntity
8
0
100
AcDbCircle
10
-128.5879034522776
20
50.125117017578738
30
0
40
2.5
210
0
220
0
230
1
100
AcDbArc
50
0
51
180
0
LINE
5
173
100
AcDbEntity
8
0
100
AcDbLine
10
-140.87535404420979
20
47.625117017578738
30
0
11
-132.0879034522776
21
47.625117017578738
31
0
0
LINE
5
174
100
AcDbEntity
8
0
100
AcDbLine
10
131.08790641916951
20
50.125117017578738
30
0
11
131.08790641916951
21
48.625117017578738
31
0
0
ARC
5
175
100
AcDbEntity
8
0
100
AcDbCircle
10
128.58790641916951
20
50.125117017578738
30
0
40
2.5
210
0
220
0
230
1
100
AcDbArc
50
0
51
180
0
LINE
5
176
100
AcDbEntity
8
0
100
AcDbLine
10
126.08790641916951
20
50.125117017578738
30
0
11
126.08790641916951
21
48.625117017578738
31
0
0
CIRCLE
5
177
100
AcDbEntity
8
0
100
AcDbCircle
10
128.58790641916951
20
50.125117017578738
30
0
40
1.3749999999999971
210
0
220
0
230
1
0
LINE
5
178
100
AcDbEntity
8
0
100
AcDbLine
10
132.08790641916951
20
47.625117017578738
30
0
11
140.87535701110167
21
47.625117017578738
31
0
0
LINE
5
179
100
AcDbEntity
8
0
100
AcDbLine
10
-2.5004034999952474
20
-50.125113503752033
30
0
11
-2.5004034999952474
21
-48.625113503752033
31
0
0
ARC
5
180
100
AcDbEntity
8
0
100
AcDbCircle
10
-0.00040349999524735836
20
-50.125113503752033
30
0
40
2.5
210
0
220
0
230
1
100
AcDbArc
50
-180
51
0
0
CIRCLE
5
181
100
AcDbEntity
8
0
100
AcDbCircle
10
-0.00040349999524735836
20
-50.125113503752033
30
0
40
1.3750000000000027
210
0
220
0
230
1
0
LINE
5
182
100
AcDbEntity
8
0
100
AcDbLine
10
2.4995965000047526
20
-50.125113503752033
30
0
11
2.4995965000047526
21
-48.625113503752033
31
0
0
CIRCLE
5
183
100
AcDbEntity
8
0
100
AcDbCircle
10
-104.77540349999522
20
-50.125113503752033
30
0
40
1.3750000000000027
210
0
220
0
230
1
0
LINE
5
184
100
AcDbEntity
8
0
100
AcDbLine
10
-102.27540349999522
20
-50.125113503752033
30
0
11
-102.27540349999522
21
-48.625113503752033
31
0
0
LINE
5
185
100
AcDbEntity
8
0
100
AcDbLine
10
-107.27540349999522
20
-50.125113503752033
30
0
11
-107.27540349999522
21
-48.625113503752033
31
0
0
LINE
5
186
100
AcDbEntity
8
0
100
AcDbLine
10
-3.5004034999952474
20
-47.625113503752033
30
0
11
-101.27540349999522
21
-47.625113503752033
31
0
0
LINE
5
187
100
AcDbEntity
8
0
100
AcDbLine
10
-108.27540349999522
20
-47.625113503752033
30
0
11
-140.87535404420976
21
-47.625113503752033
31
0
0
ARC
5
188
100
AcDbEntity
8
0
100
AcDbCircle
10
-104.77540349999522
20
-50.125113503752033
30
0
40
2.5
210
0
220
0
230
1
100
AcDbArc
50
-180
51
0
0
LINE
5
189
100
AcDbEntity
8
0
100
AcDbLine
10
102.27459650000472
20
-50.125113503752033
30
0
11
102.27459650000472
21
-48.625113503752033
31
0
0
ARC
5
190
100
AcDbEntity
8
0
100
AcDbCircle
10
104.77459650000472
20
-50.125113503752033
30
0
40
2.5
210
0
220
0
230
1
100
AcDbArc
50
-180
51
0
0
CIRCLE
5
191
100
AcDbEntity
8
0
100
AcDbCircle
10
104.77459650000472
20
-50.125113503752033
30
0
40
1.3750000000000027
210
0
220
0
230
1
0
LINE
5
192
100
AcDbEntity
8
0
100
AcDbLine
10
107.27459650000472
20
-50.125113503752033
30
0
11
107.27459650000472
21
-48.625113503752033
31
0
0
LINE
5
193
100
AcDbEntity
8
0
100
AcDbLine
10
140.8753570111017
20
-47.625113503752033
30
0
11
108.27459650000472
21
-47.625113503752033
31
0
0
LINE
5
194
100
AcDbEntity
8
0
100
AcDbLine
10
101.27459650000473
20
-47.625113503752033
30
0
11
3.4995965000047491
21
-47.625113503752033
31
0
0
ARC
5
195
100
AcDbEntity
8
0
100
AcDbCircle
10
-47.625403499995222
20
50.125117017578738
30
0
40
2.5
210
0
220
0
230
1
100
AcDbArc
50
0
51
180
0
LINE
5
196
100
AcDbEntity
8
0
100
AcDbLine
10
-50.125403499995222
20
50.125117017578738
30
0
11
-50.125403499995222
21
48.625117017578738
31
0
0
LINE
5
197
100
AcDbEntity
8
0
100
AcDbLine
10
-45.125403499995222
20
50.125117017578738
30
0
11
-45.125403499995222
21
48.625117017578738
31
0
0
CIRCLE
5
198
100
AcDbEntity
8
0
100
AcDbCircle
10
-47.625403499995222
20
50.125117017578738
30
0
40
1.3750000000000027
210
0
220
0
230
1
0
LINE
5
199
100
AcDbEntity
8
0
100
AcDbLine
10
45.125406466887128
20
50.125117017578738
30
0
11
45.125406466887128
21
48.625117017578738
31
0
0
ARC
5
200
100
AcDbEntity
8
0
100
AcDbCircle
10
47.625406466887128
20
50.125117017578738
30
0
40
2.5
210
0
220
0
230
1
100
AcDbArc
50
0
51
180
0
CIRCLE
5
201
100
AcDbEntity
8
0
100
AcDbCircle
10
47.625406466887128
20
50.125117017578738
30
0
40
1.3750000000000027
210
0
220
0
230
1
0
LINE
5
202
100
AcDbEntity
8
0
100
AcDbLine
10
50.125406466887128
20
50.125117017578738
30
0
11
50.125406466887128
21
48.625117017578738
31
0
0
LINE
5
203
100
AcDbEntity
8
0
100
AcDbLine
10
-44.12540349999523
20
47.625117017578738
30
0
11
44.125406466887114
21
47.625117017578738
31
0
0
LINE
5
204
100
AcDbEntity
8
0
100
AcDbLine
10
-125.0879034522776
20
47.625117017578738
30
0
11
-51.125403499995215
21
47.625117017578738
31
0
0
LINE
5
205
100
AcDbEntity
8
0
100
AcDbLine
10
51.125406466887128
20
47.625117017578738
30
0
11
125.08790641916951
21
47.625117017578738
31
0
0
CIRCLE
5
206
100
AcDbEntity
8
0
100
AcDbCircle
10
95.250244500004783
20
38.100094999995648
30
0
40
0.89999999999999658
210
0
220
0
230
1
0
CIRCLE
5
207
100
AcDbEntity
8
0
100
AcDbCircle
10
138.11285250000483
20
38.100094999995648
30
0
40
0.89999999999999658
210
0
220
0
230
1
0
CIRCLE
5
208
100
AcDbEntity
8
0
100
AcDbCircle
10
-76.200187499995224
20
19.05004699999564
30
0
40
0.89999999999999658
210
0
220
0
230
1
0
CIRCLE
5
209
100
AcDbEntity
8
0
100
AcDbCircle
10
-116.68165349999521
20
18.847926999995643
30
0
40
0.89999999999999658
210
0
220
0
230
1
0
CIRCLE
5
210
100
AcDbEntity
8
0
100
AcDbCircle
10
19.050052500004799
20
38.100094999995648
30
0
40
0.89999999999999658
210
0
220
0
230
1
0
CIRCLE
5
211
100
AcDbEntity
8
0
100
AcDbCircle
10
4.5000047954601996e-06
20
19.05004699999564
30
0
40
0.89999999999999658
210
0
220
0
230
1
0
CIRCLE
5
212
100
AcDbEntity
8
0
100
AcDbCircle
10
-38.100091499995216
20
19.05004699999564
30
0
40
0.89999999999999658
210
0
220
0
230
1
0
CIRCLE
5
213
100
AcDbEntity
8
0
100
AcDbCircle
10
57.150148500004804
20
38.100094999995648
30
0
40
0.89999999999999658
210
0
220
0
230
1
0
CIRCLE
5
214
100
AcDbEntity
8
0
100
AcDbCircle
10
95.249596500004813
20
0.00016699999563662971
30
0
40
0.89999999999999658
210
0
220
0
230
1
0
CIRCLE
5
215
100
AcDbEntity
8
0
100
AcDbCircle
10
76.199596500004802
20
-19.049833000004352
30
0
40
0.89999999999999658
210
0
220
0
230
1
0
CIRCLE
5
216
100
AcDbEntity
8
0
100
AcDbCircle
10
57.14959650000479
20
0.00016699999563662971
30
0
40
0.89999999999999658
210
0
220
0
230
1
0
CIRCLE
5
217
100
AcDbEntity
8
0
100
AcDbCircle
10
-116.68165349999521
20
-19.049833000004352
30
0
40
0.89999999999999658
210
0
220
0
230
1
0
CIRCLE
5
218
100
AcDbEntity
8
0
100
AcDbCircle
10
38.099596500004779
20
-19.049833000004352
30
0
40
0.89999999999999658
210
0
220
0
230
1
0
CIRCLE
5
219
100
AcDbEntity
8
0
100
AcDbCircle
10
138.11209650000481
20
0.00016699999563662971
30
0
40
0.89999999999999658
210
0
220
0
230
1
0
CIRCLE
5
220
100
AcDbEntity
8
0
100
AcDbCircle
10
-38.100403499995217
20
-19.049833000004352
30
0
40
0.89999999999999658
210
0
220
0
230
1
0
CIRCLE
5
221
100
AcDbEntity
8
0
100
AcDbCircle
10
-76.200403499995218
20
-19.049833000004352
30
0
40
0.89999999999999658
210
0
220
0
230
1
0
CIRCLE
5
222
100
AcDbEntity
8
0
100
AcDbCircle
10
116.6808465000048
20
19.05004699999564
30
0
40
0.89999999999999658
210
0
220
0
230
1
0
CIRCLE
5
223
100
AcDbEntity
8
0
100
AcDbCircle
10
-138.11284349999522
20
-1.0000043548785698e-06
30
0
40
0.89999999999999658
210
0
220
0
230
1
0
CIRCLE
5
224
100
AcDbEntity
8
0
100
AcDbCircle
10
-19.050043499995208
20
38.100094999995648
30
0
40
0.89999999999999658
210
0
220
0
230
1
0
CIRCLE
5
225
100
AcDbEntity
8
0
100
AcDbCircle
10
-57.15013949999522
20
38.100094999995648
30
0
40
0.89999999999999658
210
0
220
0
230
1
0
CIRCLE
5
226
100
AcDbEntity
8
0
100
AcDbCircle
10
-35.594653499995204
20
-45.54783300000436
30
0
40
0.89999999999999658
210
0
220
0
230
1
0
CIRCLE
5
227
100
AcDbEntity
8
0
100
AcDbCircle
10
-59.531653499995215
20
-38.099833000004367
30
0
40
0.89999999999999658
210
0
220
0
230
1
0
CIRCLE
5
228
100
AcDbEntity
8
0
100
AcDbCircle
10
116.6808465000048
20
-19.049833000004352
30
0
40
0.89999999999999658
210
0
220
0
230
1
0
CIRCLE
5
229
100
AcDbEntity
8
0
100
AcDbCircle
10
19.049596500004782
20
0.00016699999563662971
30
0
40
0.89999999999999658
210
0
220
0
230
1
0
CIRCLE
5
230
100
AcDbEntity
8
0
100
AcDbCircle
10
-95.250403499995215
20
0.00016699999563662971
30
0
40
0.89999999999999658
210
0
220
0
230
1
0
CIRCLE
5
231
100
AcDbEntity
8
0
100
AcDbCircle
10
-138.11290349999521
20
38.100166999995643
30
0
40
0.89999999999999658
210
0
220
0
230
1
0
CIRCLE
5
232
100
AcDbEntity
8
0
100
AcDbCircle
10
-109.53790349999522
20
-38.099833000004367
30
0
40
0.89999999999999658
210
0
220
0
230
1
0
CIRCLE
5
233
100
AcDbEntity
8
0
100
AcDbCircle
10
38.100100500004785
20
19.05004699999564
30
0
40
0.89999999999999658
210
0
220
0
230
1
0
CIRCLE
5
234
100
AcDbEntity
8
0
100
AcDbCircle
10
-95.250403499995215
20
38.100094999995648
30
0
40
0.89999999999999658
210
0
220
0
230
1
0
CIRCLE
5
235
100
AcDbEntity
8
0
100
AcDbCircle
10
-19.050403499995223
20
0.00016699999563662971
30
0
40
0.89999999999999658
210
0
220
0
230
1
0
CIRCLE
5
236
100
AcDbEntity
8
0
100
AcDbCircle
10
76.200196500004793
20
19.05004699999564
30
0
40
0.89999999999999658
210
0
220
0
230
1
0
CIRCLE
5
237
100
AcDbEntity
8
0
100
AcDbCircle
10
-57.150403499995207
20
0.00016699999563662971
30
0
40
0.89999999999999658
210
0
220
0
230
1
0
CIRCLE
5
238
100
AcDbEntity
8
0
100
AcDbCircle
10
114.3002925000048
20
-38.099833000004367
30
0
40
0.89999999999999658
210
0
220
0
230
1
0
CIRCLE
5
239
100
AcDbEntity
8
0
100
AcDbCircle
10
2.5053465000048192
20
-45.54783300000436
30
0
40
0.89999999999999658
210
0
220
0
230
1
0
CIRCLE
5
240
100
AcDbEntity
8
0
100
AcDbCircle
10
57.149596500004805
20
-38.099833000004367
30
0
40
0.89999999999999658
210
0
220
0
230
1
0
ARC
5
241
100
AcDbEntity
8
0
100
AcDbCircle
10
-132.0879034522776
20
48.625117017578738
30
0
40
0.99999999999999645
210
-0
220
0
230
1
100
AcDbArc
50
-90
51
0
0
ARC
5
242
100
AcDbEntity
8
0
100
AcDbCircle
10
-125.0879034522776
20
48.625117017578738
30
0
40
0.99999999999999645
210
0
220
0
230
1
100
AcDbArc
50
180
51
270
0
ARC
5
243
100
AcDbEntity
8
0
100
AcDbCircle
10
-51.125403499995215
20
48.625117017578738
30
0
40
0.99999999999999645
210
-0
220
0
230
1
100
AcDbArc
50
-90
51
0
0
ARC
5
244
100
AcDbEntity
8
0
100
AcDbCircle
10
-44.12540349999523
20
48.625117017578738
30
0
40
0.99999999999999645
210
0
220
0
230
1
100
AcDbArc
50
180
51
270
0
ARC
5
245
100
AcDbEntity
8
0
100
AcDbCircle
10
44.125406466887128
20
48.625117017578738
30
0
40
0.99999999999999645
210
0
220
0
230
1
100
AcDbArc
50
-90.00000000000081
51
0
0
ARC
5
246
100
AcDbEntity
8
0
100
AcDbCircle
10
51.125406466887128
20
48.625117017578738
30
0
40
0.99999999999999645
210
0
220
0
230
1
100
AcDbArc
50
180
51
270
0
ARC
5
247
100
AcDbEntity
8
0
100
AcDbCircle
10
125.08790641916951
20
48.625117017578738
30
0
40
0.99999999999999645
210
-0
220
0
230
1
100
AcDbArc
50
-90
51
0
0
ARC
5
248
100
AcDbEntity
8
0
100
AcDbCircle
10
132.08790641916951
20
48.625117017578738
30
0
40
0.99999999999999645
210
0
220
0
230
1
100
AcDbArc
50
180
51
270
0
ARC
5
249
100
AcDbEntity
8
0
100
AcDbCircle
10
108.27459650000472
20
-48.625113503752033
30
0
40
0.99999999999999645
210
0
220
-0
230
1
100
AcDbArc
50
90
51
180
0
ARC
5
250
100
AcDbEntity
8
0
100
AcDbCircle
10
101.27459650000473
20
-48.625113503752033
30
0
40
0.99999999999999645
210
0
220
0
230
1
100
AcDbArc
50
0
51
90
0
ARC
5
251
100
AcDbEntity
8
0
100
AcDbCircle
10
3.4995965000047455
20
-48.625113503752033
30
0
40
0.99999999999999645
210
0
220
-0
230
1
100
AcDbArc
50
89.999999999999801
51
180
0
ARC
5
252
100
AcDbEntity
8
0
100
AcDbCircle
10
-3.5004034999952416
20
-48.625113503752033
30
0
40
0.99999999999999423
210
0
220
0
230
1
100
AcDbArc
50
0
51
90.000000000000327
0
ARC
5
253
100
AcDbEntity
8
0
100
AcDbCircle
10
-108.27540349999522
20
-48.625113503752033
30
0
40
0.99999999999999645
210
0
220
0
230
1
100
AcDbArc
50
0
51
90
0
ARC
5
254
100
AcDbEntity
8
0
100
AcDbCircle
10
-101.27540349999522
20
-48.625113503752033
30
0
40
0.99999999999999645
210
0
220
-0
230
1
100
AcDbArc
50
90
51
180
0
LWPOLYLINE
5
255
100
AcDbEntity
8
0
100
AcDbPolyline
90
8
70
1
43
0.0
10
-34.05040349999522
20
-31.09983300000437
10
-4.0504034999952276
20
-31.099833000004374
10
-3.0504034999952268
20
-32.099833000004374
10
-3.0504034999952268
20
-43.599833000004374
10
-6.050403499995225
20
-45.099833000004367
10
-32.05040349999522
20
-45.099833000004367
10
-35.05040349999522
20
-43.599833000004374
10
-35.05040349999522
20
-32.099833000004374
0
LWPOLYLINE
5
256
100
AcDbEntity
8
0
100
AcDbPolyline
90
8
70
1
43
0.0
10
4.0495965000047764
20
-31.099833000004367
10
34.049596500004789
20
-31.099833000004367
10
35.049596500004789
20
-32.099833000004367
10
35.049596500004789
20
-43.599833000004367
10
32.049596500004782
20
-45.099833000004381
10
6.0495965000047818
20
-45.099833000004381
10
3.0495965000047764
20
-43.599833000004374
10
3.0495965000047764
20
-32.099833000004374
0
ENDSEC
0
SECTION
2
OBJECTS
0
DICTIONARY
5
C
100
AcDbDictionary
3
ACAD_GROUP
350
D
3
ACAD_MLINESTYLE
350
17
0
DICTIONARY
5
D
100
AcDbDictionary
0
DICTIONARY
5
1A
330
C
100
AcDbDictionary
0
DICTIONARY
5
17
100
AcDbDictionary
0
ENDSEC
0
EOF
