0
SECTION
2
HEADER
9
$INSUNITS
70
4
0
ENDSEC
0
SECTION
2
TABLES
0
TABLE
2
LTYPE
0
LTYPE
72
65
70
64
2
CONTINUOUS
3
______
73
0
40
0
0
ENDTAB
0
TABLE
2
LAYER
0
ENDTAB
0
ENDSEC
0
SECTION
2
ENTITIES
0
LINE
8
0
10
7.7875
20
-2.525
11
20.7875
21
-2.525
0
LINE
8
0
10
7.7875
20
-16.525
11
20.7875
21
-16.525
0
LINE
8
0
10
7.2875
20
-3.025
11
7.2875
21
-16.025
0
LINE
8
0
10
21.2875
20
-3.025
11
21.2875
21
-16.025
0
ARC
8
0
10
7.7875
20
-3.025
40
0.5
50
90
51
180
0
ARC
8
0
10
20.7875
20
-3.025
40
0.5
50
0
51
90
0
ARC
8
0
10
7.7875
20
-16.025
40
0.5
50
180
51
270
0
ARC
8
0
10
20.7875
20
-16.025
40
0.5
50
270
51
0
0
LINE
8
0
10
31.6
20
-2.525
11
44.6
21
-2.525
0
LINE
8
0
10
31.6
20
-16.525
11
44.6
21
-16.525
0
LINE
8
0
10
31.1
20
-3.025
11
31.1
21
-16.025
0
LINE
8
0
10
45.1
20
-3.025
11
45.1
21
-16.025
0
ARC
8
0
10
31.6
20
-3.025
40
0.5
50
90
51
180
0
ARC
8
0
10
44.6
20
-3.025
40
0.5
50
0
51
90
0
ARC
8
0
10
31.6
20
-16.025
40
0.5
50
180
51
270
0
ARC
8
0
10
44.6
20
-16.025
40
0.5
50
270
51
0
0
LINE
8
0
10
50.65
20
-2.525
11
63.65
21
-2.525
0
LINE
8
0
10
50.65
20
-16.525
11
63.65
21
-16.525
0
LINE
8
0
10
50.15
20
-3.025
11
50.15
21
-16.025
0
LINE
8
0
10
64.15
20
-3.025
11
64.15
21
-16.025
0
ARC
8
0
10
50.65
20
-3.025
40
0.5
50
90
51
180
0
ARC
8
0
10
63.65
20
-3.025
40
0.5
50
0
51
90
0
ARC
8
0
10
50.65
20
-16.025
40
0.5
50
180
51
270
0
ARC
8
0
10
63.65
20
-16.025
40
0.5
50
270
51
0
0
LINE
8
0
10
69.7
20
-2.525
11
82.7
21
-2.525
0
LINE
8
0
10
69.7
20
-16.525
11
82.7
21
-16.525
0
LINE
8
0
10
69.2
20
-3.025
11
69.2
21
-16.025
0
LINE
8
0
10
83.2
20
-3.025
11
83.2
21
-16.025
0
ARC
8
0
10
69.7
20
-3.025
40
0.5
50
90
51
180
0
ARC
8
0
10
82.7
20
-3.025
40
0.5
50
0
51
90
0
ARC
8
0
10
69.7
20
-16.025
40
0.5
50
180
51
270
0
ARC
8
0
10
82.7
20
-16.025
40
0.5
50
270
51
0
0
LINE
8
0
10
88.75
20
-2.525
11
101.75
21
-2.525
0
LINE
8
0
10
88.75
20
-16.525
11
101.75
21
-16.525
0
LINE
8
0
10
88.25
20
-3.025
11
88.25
21
-16.025
0
LINE
8
0
10
102.25
20
-3.025
11
102.25
21
-16.025
0
ARC
8
0
10
88.75
20
-3.025
40
0.5
50
90
51
180
0
ARC
8
0
10
101.75
20
-3.025
40
0.5
50
0
51
90
0
ARC
8
0
10
88.75
20
-16.025
40
0.5
50
180
51
270
0
ARC
8
0
10
101.75
20
-16.025
40
0.5
50
270
51
0
0
LINE
8
0
10
107.8
20
-2.525
11
120.8
21
-2.525
0
LINE
8
0
10
107.8
20
-16.525
11
120.8
21
-16.525
0
LINE
8
0
10
107.3
20
-3.025
11
107.3
21
-16.025
0
LINE
8
0
10
121.3
20
-3.025
11
121.3
21
-16.025
0
ARC
8
0
10
107.8
20
-3.025
40
0.5
50
90
51
180
0
ARC
8
0
10
120.8
20
-3.025
40
0.5
50
0
51
90
0
ARC
8
0
10
107.8
20
-16.025
40
0.5
50
180
51
270
0
ARC
8
0
10
120.8
20
-16.025
40
0.5
50
270
51
0
0
LINE
8
0
10
126.85
20
-2.525
11
139.85
21
-2.525
0
LINE
8
0
10
126.85
20
-16.525
11
139.85
21
-16.525
0
LINE
8
0
10
126.35
20
-3.025
11
126.35
21
-16.025
0
LINE
8
0
10
140.35
20
-3.025
11
140.35
21
-16.025
0
ARC
8
0
10
126.85
20
-3.025
40
0.5
50
90
51
180
0
ARC
8
0
10
139.85
20
-3.025
40
0.5
50
0
51
90
0
ARC
8
0
10
126.85
20
-16.025
40
0.5
50
180
51
270
0
ARC
8
0
10
139.85
20
-16.025
40
0.5
50
270
51
0
0
LINE
8
0
10
145.9
20
-2.525
11
158.9
21
-2.525
0
LINE
8
0
10
145.9
20
-16.525
11
158.9
21
-16.525
0
LINE
8
0
10
145.4
20
-3.025
11
145.4
21
-16.025
0
LINE
8
0
10
159.4
20
-3.025
11
159.4
21
-16.025
0
ARC
8
0
10
145.9
20
-3.025
40
0.5
50
90
51
180
0
ARC
8
0
10
158.9
20
-3.025
40
0.5
50
0
51
90
0
ARC
8
0
10
145.9
20
-16.025
40
0.5
50
180
51
270
0
ARC
8
0
10
158.9
20
-16.025
40
0.5
50
270
51
0
0
LINE
8
0
10
164.95
20
-2.525
11
177.95
21
-2.525
0
LINE
8
0
10
164.95
20
-16.525
11
177.95
21
-16.525
0
LINE
8
0
10
164.45
20
-3.025
11
164.45
21
-16.025
0
LINE
8
0
10
178.45
20
-3.025
11
178.45
21
-16.025
0
ARC
8
0
10
164.95
20
-3.025
40
0.5
50
90
51
180
0
ARC
8
0
10
177.95
20
-3.025
40
0.5
50
0
51
90
0
ARC
8
0
10
164.95
20
-16.025
40
0.5
50
180
51
270
0
ARC
8
0
10
177.95
20
-16.025
40
0.5
50
270
51
0
0
LINE
8
0
10
184
20
-2.525
11
197
21
-2.525
0
LINE
8
0
10
184
20
-16.525
11
197
21
-16.525
0
LINE
8
0
10
183.5
20
-3.025
11
183.5
21
-16.025
0
LINE
8
0
10
197.5
20
-3.025
11
197.5
21
-16.025
0
ARC
8
0
10
184
20
-3.025
40
0.5
50
90
51
180
0
ARC
8
0
10
197
20
-3.025
40
0.5
50
0
51
90
0
ARC
8
0
10
184
20
-16.025
40
0.5
50
180
51
270
0
ARC
8
0
10
197
20
-16.025
40
0.5
50
270
51
0
0
LINE
8
0
10
203.05
20
-2.525
11
216.05
21
-2.525
0
LINE
8
0
10
203.05
20
-16.525
11
216.05
21
-16.525
0
LINE
8
0
10
202.55
20
-3.025
11
202.55
21
-16.025
0
LINE
8
0
10
216.55
20
-3.025
11
216.55
21
-16.025
0
ARC
8
0
10
203.05
20
-3.025
40
0.5
50
90
51
180
0
ARC
8
0
10
216.05
20
-3.025
40
0.5
50
0
51
90
0
ARC
8
0
10
203.05
20
-16.025
40
0.5
50
180
51
270
0
ARC
8
0
10
216.05
20
-16.025
40
0.5
50
270
51
0
0
LINE
8
0
10
222.1
20
-2.525
11
235.1
21
-2.525
0
LINE
8
0
10
222.1
20
-16.525
11
235.1
21
-16.525
0
LINE
8
0
10
221.6
20
-3.025
11
221.6
21
-16.025
0
LINE
8
0
10
235.6
20
-3.025
11
235.6
21
-16.025
0
ARC
8
0
10
222.1
20
-3.025
40
0.5
50
90
51
180
0
ARC
8
0
10
235.1
20
-3.025
40
0.5
50
0
51
90
0
ARC
8
0
10
222.1
20
-16.025
40
0.5
50
180
51
270
0
ARC
8
0
10
235.1
20
-16.025
40
0.5
50
270
51
0
0
LINE
8
0
10
241.15
20
-2.525
11
254.15
21
-2.525
0
LINE
8
0
10
241.15
20
-16.525
11
254.15
21
-16.525
0
LINE
8
0
10
240.65
20
-3.025
11
240.65
21
-16.025
0
LINE
8
0
10
254.65
20
-3.025
11
254.65
21
-16.025
0
ARC
8
0
10
241.15
20
-3.025
40
0.5
50
90
51
180
0
ARC
8
0
10
254.15
20
-3.025
40
0.5
50
0
51
90
0
ARC
8
0
10
241.15
20
-16.025
40
0.5
50
180
51
270
0
ARC
8
0
10
254.15
20
-16.025
40
0.5
50
270
51
0
0
LINE
8
0
10
264.9625
20
-2.525
11
277.9625
21
-2.525
0
LINE
8
0
10
264.9625
20
-16.525
11
277.9625
21
-16.525
0
LINE
8
0
10
264.4625
20
-3.025
11
264.4625
21
-16.025
0
LINE
8
0
10
278.4625
20
-3.025
11
278.4625
21
-16.025
0
ARC
8
0
10
264.9625
20
-3.025
40
0.5
50
90
51
180
0
ARC
8
0
10
277.9625
20
-3.025
40
0.5
50
0
51
90
0
ARC
8
0
10
264.9625
20
-16.025
40
0.5
50
180
51
270
0
ARC
8
0
10
277.9625
20
-16.025
40
0.5
50
270
51
0
0
LINE
8
0
10
7.7875
20
-21.575
11
20.7875
21
-21.575
0
LINE
8
0
10
7.7875
20
-35.575
11
20.7875
21
-35.575
0
LINE
8
0
10
7.2875
20
-22.075
11
7.2875
21
-35.075
0
LINE
8
0
10
21.2875
20
-22.075
11
21.2875
21
-35.075
0
ARC
8
0
10
7.7875
20
-22.075
40
0.5
50
90
51
180
0
ARC
8
0
10
20.7875
20
-22.075
40
0.5
50
0
51
90
0
ARC
8
0
10
7.7875
20
-35.075
40
0.5
50
180
51
270
0
ARC
8
0
10
20.7875
20
-35.075
40
0.5
50
270
51
0
0
LINE
8
0
10
31.6
20
-21.575
11
44.6
21
-21.575
0
LINE
8
0
10
31.6
20
-35.575
11
44.6
21
-35.575
0
LINE
8
0
10
31.1
20
-22.075
11
31.1
21
-35.075
0
LINE
8
0
10
45.1
20
-22.075
11
45.1
21
-35.075
0
ARC
8
0
10
31.6
20
-22.075
40
0.5
50
90
51
180
0
ARC
8
0
10
44.6
20
-22.075
40
0.5
50
0
51
90
0
ARC
8
0
10
31.6
20
-35.075
40
0.5
50
180
51
270
0
ARC
8
0
10
44.6
20
-35.075
40
0.5
50
270
51
0
0
LINE
8
0
10
50.65
20
-21.575
11
63.65
21
-21.575
0
LINE
8
0
10
50.65
20
-35.575
11
63.65
21
-35.575
0
LINE
8
0
10
50.15
20
-22.075
11
50.15
21
-35.075
0
LINE
8
0
10
64.15
20
-22.075
11
64.15
21
-35.075
0
ARC
8
0
10
50.65
20
-22.075
40
0.5
50
90
51
180
0
ARC
8
0
10
63.65
20
-22.075
40
0.5
50
0
51
90
0
ARC
8
0
10
50.65
20
-35.075
40
0.5
50
180
51
270
0
ARC
8
0
10
63.65
20
-35.075
40
0.5
50
270
51
0
0
LINE
8
0
10
69.7
20
-21.575
11
82.7
21
-21.575
0
LINE
8
0
10
69.7
20
-35.575
11
82.7
21
-35.575
0
LINE
8
0
10
69.2
20
-22.075
11
69.2
21
-35.075
0
LINE
8
0
10
83.2
20
-22.075
11
83.2
21
-35.075
0
ARC
8
0
10
69.7
20
-22.075
40
0.5
50
90
51
180
0
ARC
8
0
10
82.7
20
-22.075
40
0.5
50
0
51
90
0
ARC
8
0
10
69.7
20
-35.075
40
0.5
50
180
51
270
0
ARC
8
0
10
82.7
20
-35.075
40
0.5
50
270
51
0
0
LINE
8
0
10
88.75
20
-21.575
11
101.75
21
-21.575
0
LINE
8
0
10
88.75
20
-35.575
11
101.75
21
-35.575
0
LINE
8
0
10
88.25
20
-22.075
11
88.25
21
-35.075
0
LINE
8
0
10
102.25
20
-22.075
11
102.25
21
-35.075
0
ARC
8
0
10
88.75
20
-22.075
40
0.5
50
90
51
180
0
ARC
8
0
10
101.75
20
-22.075
40
0.5
50
0
51
90
0
ARC
8
0
10
88.75
20
-35.075
40
0.5
50
180
51
270
0
ARC
8
0
10
101.75
20
-35.075
40
0.5
50
270
51
0
0
LINE
8
0
10
107.8
20
-21.575
11
120.8
21
-21.575
0
LINE
8
0
10
107.8
20
-35.575
11
120.8
21
-35.575
0
LINE
8
0
10
107.3
20
-22.075
11
107.3
21
-35.075
0
LINE
8
0
10
121.3
20
-22.075
11
121.3
21
-35.075
0
ARC
8
0
10
107.8
20
-22.075
40
0.5
50
90
51
180
0
ARC
8
0
10
120.8
20
-22.075
40
0.5
50
0
51
90
0
ARC
8
0
10
107.8
20
-35.075
40
0.5
50
180
51
270
0
ARC
8
0
10
120.8
20
-35.075
40
0.5
50
270
51
0
0
LINE
8
0
10
126.85
20
-21.575
11
139.85
21
-21.575
0
LINE
8
0
10
126.85
20
-35.575
11
139.85
21
-35.575
0
LINE
8
0
10
126.35
20
-22.075
11
126.35
21
-35.075
0
LINE
8
0
10
140.35
20
-22.075
11
140.35
21
-35.075
0
ARC
8
0
10
126.85
20
-22.075
40
0.5
50
90
51
180
0
ARC
8
0
10
139.85
20
-22.075
40
0.5
50
0
51
90
0
ARC
8
0
10
126.85
20
-35.075
40
0.5
50
180
51
270
0
ARC
8
0
10
139.85
20
-35.075
40
0.5
50
270
51
0
0
LINE
8
0
10
145.9
20
-21.575
11
158.9
21
-21.575
0
LINE
8
0
10
145.9
20
-35.575
11
158.9
21
-35.575
0
LINE
8
0
10
145.4
20
-22.075
11
145.4
21
-35.075
0
LINE
8
0
10
159.4
20
-22.075
11
159.4
21
-35.075
0
ARC
8
0
10
145.9
20
-22.075
40
0.5
50
90
51
180
0
ARC
8
0
10
158.9
20
-22.075
40
0.5
50
0
51
90
0
ARC
8
0
10
145.9
20
-35.075
40
0.5
50
180
51
270
0
ARC
8
0
10
158.9
20
-35.075
40
0.5
50
270
51
0
0
LINE
8
0
10
164.95
20
-21.575
11
177.95
21
-21.575
0
LINE
8
0
10
164.95
20
-35.575
11
177.95
21
-35.575
0
LINE
8
0
10
164.45
20
-22.075
11
164.45
21
-35.075
0
LINE
8
0
10
178.45
20
-22.075
11
178.45
21
-35.075
0
ARC
8
0
10
164.95
20
-22.075
40
0.5
50
90
51
180
0
ARC
8
0
10
177.95
20
-22.075
40
0.5
50
0
51
90
0
ARC
8
0
10
164.95
20
-35.075
40
0.5
50
180
51
270
0
ARC
8
0
10
177.95
20
-35.075
40
0.5
50
270
51
0
0
LINE
8
0
10
184
20
-21.575
11
197
21
-21.575
0
LINE
8
0
10
184
20
-35.575
11
197
21
-35.575
0
LINE
8
0
10
183.5
20
-22.075
11
183.5
21
-35.075
0
LINE
8
0
10
197.5
20
-22.075
11
197.5
21
-35.075
0
ARC
8
0
10
184
20
-22.075
40
0.5
50
90
51
180
0
ARC
8
0
10
197
20
-22.075
40
0.5
50
0
51
90
0
ARC
8
0
10
184
20
-35.075
40
0.5
50
180
51
270
0
ARC
8
0
10
197
20
-35.075
40
0.5
50
270
51
0
0
LINE
8
0
10
203.05
20
-21.575
11
216.05
21
-21.575
0
LINE
8
0
10
203.05
20
-35.575
11
216.05
21
-35.575
0
LINE
8
0
10
202.55
20
-22.075
11
202.55
21
-35.075
0
LINE
8
0
10
216.55
20
-22.075
11
216.55
21
-35.075
0
ARC
8
0
10
203.05
20
-22.075
40
0.5
50
90
51
180
0
ARC
8
0
10
216.05
20
-22.075
40
0.5
50
0
51
90
0
ARC
8
0
10
203.05
20
-35.075
40
0.5
50
180
51
270
0
ARC
8
0
10
216.05
20
-35.075
40
0.5
50
270
51
0
0
LINE
8
0
10
222.1
20
-21.575
11
235.1
21
-21.575
0
LINE
8
0
10
222.1
20
-35.575
11
235.1
21
-35.575
0
LINE
8
0
10
221.6
20
-22.075
11
221.6
21
-35.075
0
LINE
8
0
10
235.6
20
-22.075
11
235.6
21
-35.075
0
ARC
8
0
10
222.1
20
-22.075
40
0.5
50
90
51
180
0
ARC
8
0
10
235.1
20
-22.075
40
0.5
50
0
51
90
0
ARC
8
0
10
222.1
20
-35.075
40
0.5
50
180
51
270
0
ARC
8
0
10
235.1
20
-35.075
40
0.5
50
270
51
0
0
LINE
8
0
10
241.15
20
-21.575
11
254.15
21
-21.575
0
LINE
8
0
10
241.15
20
-35.575
11
254.15
21
-35.575
0
LINE
8
0
10
240.65
20
-22.075
11
240.65
21
-35.075
0
LINE
8
0
10
254.65
20
-22.075
11
254.65
21
-35.075
0
ARC
8
0
10
241.15
20
-22.075
40
0.5
50
90
51
180
0
ARC
8
0
10
254.15
20
-22.075
40
0.5
50
0
51
90
0
ARC
8
0
10
241.15
20
-35.075
40
0.5
50
180
51
270
0
ARC
8
0
10
254.15
20
-35.075
40
0.5
50
270
51
0
0
LINE
8
0
10
264.9625
20
-21.575
11
277.9625
21
-21.575
0
LINE
8
0
10
264.9625
20
-35.575
11
277.9625
21
-35.575
0
LINE
8
0
10
264.4625
20
-22.075
11
264.4625
21
-35.075
0
LINE
8
0
10
278.4625
20
-22.075
11
278.4625
21
-35.075
0
ARC
8
0
10
264.9625
20
-22.075
40
0.5
50
90
51
180
0
ARC
8
0
10
277.9625
20
-22.075
40
0.5
50
0
51
90
0
ARC
8
0
10
264.9625
20
-35.075
40
0.5
50
180
51
270
0
ARC
8
0
10
277.9625
20
-35.075
40
0.5
50
270
51
0
0
LINE
8
0
10
7.7875
20
-40.625
11
20.7875
21
-40.625
0
LINE
8
0
10
7.7875
20
-54.625
11
20.7875
21
-54.625
0
LINE
8
0
10
7.2875
20
-41.125
11
7.2875
21
-54.125
0
LINE
8
0
10
21.2875
20
-41.125
11
21.2875
21
-54.125
0
ARC
8
0
10
7.7875
20
-41.125
40
0.5
50
90
51
180
0
ARC
8
0
10
20.7875
20
-41.125
40
0.5
50
0
51
90
0
ARC
8
0
10
7.7875
20
-54.125
40
0.5
50
180
51
270
0
ARC
8
0
10
20.7875
20
-54.125
40
0.5
50
270
51
0
0
LINE
8
0
10
31.6
20
-40.625
11
44.6
21
-40.625
0
LINE
8
0
10
31.6
20
-54.625
11
44.6
21
-54.625
0
LINE
8
0
10
31.1
20
-41.125
11
31.1
21
-54.125
0
LINE
8
0
10
45.1
20
-41.125
11
45.1
21
-54.125
0
ARC
8
0
10
31.6
20
-41.125
40
0.5
50
90
51
180
0
ARC
8
0
10
44.6
20
-41.125
40
0.5
50
0
51
90
0
ARC
8
0
10
31.6
20
-54.125
40
0.5
50
180
51
270
0
ARC
8
0
10
44.6
20
-54.125
40
0.5
50
270
51
0
0
LINE
8
0
10
50.65
20
-40.625
11
63.65
21
-40.625
0
LINE
8
0
10
50.65
20
-54.625
11
63.65
21
-54.625
0
LINE
8
0
10
50.15
20
-41.125
11
50.15
21
-54.125
0
LINE
8
0
10
64.15
20
-41.125
11
64.15
21
-54.125
0
ARC
8
0
10
50.65
20
-41.125
40
0.5
50
90
51
180
0
ARC
8
0
10
63.65
20
-41.125
40
0.5
50
0
51
90
0
ARC
8
0
10
50.65
20
-54.125
40
0.5
50
180
51
270
0
ARC
8
0
10
63.65
20
-54.125
40
0.5
50
270
51
0
0
LINE
8
0
10
69.7
20
-40.625
11
82.7
21
-40.625
0
LINE
8
0
10
69.7
20
-54.625
11
82.7
21
-54.625
0
LINE
8
0
10
69.2
20
-41.125
11
69.2
21
-54.125
0
LINE
8
0
10
83.2
20
-41.125
11
83.2
21
-54.125
0
ARC
8
0
10
69.7
20
-41.125
40
0.5
50
90
51
180
0
ARC
8
0
10
82.7
20
-41.125
40
0.5
50
0
51
90
0
ARC
8
0
10
69.7
20
-54.125
40
0.5
50
180
51
270
0
ARC
8
0
10
82.7
20
-54.125
40
0.5
50
270
51
0
0
LINE
8
0
10
88.75
20
-40.625
11
101.75
21
-40.625
0
LINE
8
0
10
88.75
20
-54.625
11
101.75
21
-54.625
0
LINE
8
0
10
88.25
20
-41.125
11
88.25
21
-54.125
0
LINE
8
0
10
102.25
20
-41.125
11
102.25
21
-54.125
0
ARC
8
0
10
88.75
20
-41.125
40
0.5
50
90
51
180
0
ARC
8
0
10
101.75
20
-41.125
40
0.5
50
0
51
90
0
ARC
8
0
10
88.75
20
-54.125
40
0.5
50
180
51
270
0
ARC
8
0
10
101.75
20
-54.125
40
0.5
50
270
51
0
0
LINE
8
0
10
107.8
20
-40.625
11
120.8
21
-40.625
0
LINE
8
0
10
107.8
20
-54.625
11
120.8
21
-54.625
0
LINE
8
0
10
107.3
20
-41.125
11
107.3
21
-54.125
0
LINE
8
0
10
121.3
20
-41.125
11
121.3
21
-54.125
0
ARC
8
0
10
107.8
20
-41.125
40
0.5
50
90
51
180
0
ARC
8
0
10
120.8
20
-41.125
40
0.5
50
0
51
90
0
ARC
8
0
10
107.8
20
-54.125
40
0.5
50
180
51
270
0
ARC
8
0
10
120.8
20
-54.125
40
0.5
50
270
51
0
0
LINE
8
0
10
126.85
20
-40.625
11
139.85
21
-40.625
0
LINE
8
0
10
126.85
20
-54.625
11
139.85
21
-54.625
0
LINE
8
0
10
126.35
20
-41.125
11
126.35
21
-54.125
0
LINE
8
0
10
140.35
20
-41.125
11
140.35
21
-54.125
0
ARC
8
0
10
126.85
20
-41.125
40
0.5
50
90
51
180
0
ARC
8
0
10
139.85
20
-41.125
40
0.5
50
0
51
90
0
ARC
8
0
10
126.85
20
-54.125
40
0.5
50
180
51
270
0
ARC
8
0
10
139.85
20
-54.125
40
0.5
50
270
51
0
0
LINE
8
0
10
145.9
20
-40.625
11
158.9
21
-40.625
0
LINE
8
0
10
145.9
20
-54.625
11
158.9
21
-54.625
0
LINE
8
0
10
145.4
20
-41.125
11
145.4
21
-54.125
0
LINE
8
0
10
159.4
20
-41.125
11
159.4
21
-54.125
0
ARC
8
0
10
145.9
20
-41.125
40
0.5
50
90
51
180
0
ARC
8
0
10
158.9
20
-41.125
40
0.5
50
0
51
90
0
ARC
8
0
10
145.9
20
-54.125
40
0.5
50
180
51
270
0
ARC
8
0
10
158.9
20
-54.125
40
0.5
50
270
51
0
0
LINE
8
0
10
164.95
20
-40.625
11
177.95
21
-40.625
0
LINE
8
0
10
164.95
20
-54.625
11
177.95
21
-54.625
0
LINE
8
0
10
164.45
20
-41.125
11
164.45
21
-54.125
0
LINE
8
0
10
178.45
20
-41.125
11
178.45
21
-54.125
0
ARC
8
0
10
164.95
20
-41.125
40
0.5
50
90
51
180
0
ARC
8
0
10
177.95
20
-41.125
40
0.5
50
0
51
90
0
ARC
8
0
10
164.95
20
-54.125
40
0.5
50
180
51
270
0
ARC
8
0
10
177.95
20
-54.125
40
0.5
50
270
51
0
0
LINE
8
0
10
184
20
-40.625
11
197
21
-40.625
0
LINE
8
0
10
184
20
-54.625
11
197
21
-54.625
0
LINE
8
0
10
183.5
20
-41.125
11
183.5
21
-54.125
0
LINE
8
0
10
197.5
20
-41.125
11
197.5
21
-54.125
0
ARC
8
0
10
184
20
-41.125
40
0.5
50
90
51
180
0
ARC
8
0
10
197
20
-41.125
40
0.5
50
0
51
90
0
ARC
8
0
10
184
20
-54.125
40
0.5
50
180
51
270
0
ARC
8
0
10
197
20
-54.125
40
0.5
50
270
51
0
0
LINE
8
0
10
203.05
20
-40.625
11
216.05
21
-40.625
0
LINE
8
0
10
203.05
20
-54.625
11
216.05
21
-54.625
0
LINE
8
0
10
202.55
20
-41.125
11
202.55
21
-54.125
0
LINE
8
0
10
216.55
20
-41.125
11
216.55
21
-54.125
0
ARC
8
0
10
203.05
20
-41.125
40
0.5
50
90
51
180
0
ARC
8
0
10
216.05
20
-41.125
40
0.5
50
0
51
90
0
ARC
8
0
10
203.05
20
-54.125
40
0.5
50
180
51
270
0
ARC
8
0
10
216.05
20
-54.125
40
0.5
50
270
51
0
0
LINE
8
0
10
222.1
20
-40.625
11
235.1
21
-40.625
0
LINE
8
0
10
222.1
20
-54.625
11
235.1
21
-54.625
0
LINE
8
0
10
221.6
20
-41.125
11
221.6
21
-54.125
0
LINE
8
0
10
235.6
20
-41.125
11
235.6
21
-54.125
0
ARC
8
0
10
222.1
20
-41.125
40
0.5
50
90
51
180
0
ARC
8
0
10
235.1
20
-41.125
40
0.5
50
0
51
90
0
ARC
8
0
10
222.1
20
-54.125
40
0.5
50
180
51
270
0
ARC
8
0
10
235.1
20
-54.125
40
0.5
50
270
51
0
0
LINE
8
0
10
241.15
20
-40.625
11
254.15
21
-40.625
0
LINE
8
0
10
241.15
20
-54.625
11
254.15
21
-54.625
0
LINE
8
0
10
240.65
20
-41.125
11
240.65
21
-54.125
0
LINE
8
0
10
254.65
20
-41.125
11
254.65
21
-54.125
0
ARC
8
0
10
241.15
20
-41.125
40
0.5
50
90
51
180
0
ARC
8
0
10
254.15
20
-41.125
40
0.5
50
0
51
90
0
ARC
8
0
10
241.15
20
-54.125
40
0.5
50
180
51
270
0
ARC
8
0
10
254.15
20
-54.125
40
0.5
50
270
51
0
0
LINE
8
0
10
264.9625
20
-40.625
11
277.9625
21
-40.625
0
LINE
8
0
10
264.9625
20
-54.625
11
277.9625
21
-54.625
0
LINE
8
0
10
264.4625
20
-41.125
11
264.4625
21
-54.125
0
LINE
8
0
10
278.4625
20
-41.125
11
278.4625
21
-54.125
0
ARC
8
0
10
264.9625
20
-41.125
40
0.5
50
90
51
180
0
ARC
8
0
10
277.9625
20
-41.125
40
0.5
50
0
51
90
0
ARC
8
0
10
264.9625
20
-54.125
40
0.5
50
180
51
270
0
ARC
8
0
10
277.9625
20
-54.125
40
0.5
50
270
51
0
0
LINE
8
0
10
7.7875
20
-59.675
11
20.7875
21
-59.675
0
LINE
8
0
10
7.7875
20
-73.675
11
20.7875
21
-73.675
0
LINE
8
0
10
7.2875
20
-60.175
11
7.2875
21
-73.175
0
LINE
8
0
10
21.2875
20
-60.175
11
21.2875
21
-73.175
0
ARC
8
0
10
7.7875
20
-60.175
40
0.5
50
90
51
180
0
ARC
8
0
10
20.7875
20
-60.175
40
0.5
50
0
51
90
0
ARC
8
0
10
7.7875
20
-73.175
40
0.5
50
180
51
270
0
ARC
8
0
10
20.7875
20
-73.175
40
0.5
50
270
51
0
0
LINE
8
0
10
31.6
20
-59.675
11
44.6
21
-59.675
0
LINE
8
0
10
31.6
20
-73.675
11
44.6
21
-73.675
0
LINE
8
0
10
31.1
20
-60.175
11
31.1
21
-73.175
0
LINE
8
0
10
45.1
20
-60.175
11
45.1
21
-73.175
0
ARC
8
0
10
31.6
20
-60.175
40
0.5
50
90
51
180
0
ARC
8
0
10
44.6
20
-60.175
40
0.5
50
0
51
90
0
ARC
8
0
10
31.6
20
-73.175
40
0.5
50
180
51
270
0
ARC
8
0
10
44.6
20
-73.175
40
0.5
50
270
51
0
0
LINE
8
0
10
50.65
20
-59.675
11
63.65
21
-59.675
0
LINE
8
0
10
50.65
20
-73.675
11
63.65
21
-73.675
0
LINE
8
0
10
50.15
20
-60.175
11
50.15
21
-73.175
0
LINE
8
0
10
64.15
20
-60.175
11
64.15
21
-73.175
0
ARC
8
0
10
50.65
20
-60.175
40
0.5
50
90
51
180
0
ARC
8
0
10
63.65
20
-60.175
40
0.5
50
0
51
90
0
ARC
8
0
10
50.65
20
-73.175
40
0.5
50
180
51
270
0
ARC
8
0
10
63.65
20
-73.175
40
0.5
50
270
51
0
0
LINE
8
0
10
69.7
20
-59.675
11
82.7
21
-59.675
0
LINE
8
0
10
69.7
20
-73.675
11
82.7
21
-73.675
0
LINE
8
0
10
69.2
20
-60.175
11
69.2
21
-73.175
0
LINE
8
0
10
83.2
20
-60.175
11
83.2
21
-73.175
0
ARC
8
0
10
69.7
20
-60.175
40
0.5
50
90
51
180
0
ARC
8
0
10
82.7
20
-60.175
40
0.5
50
0
51
90
0
ARC
8
0
10
69.7
20
-73.175
40
0.5
50
180
51
270
0
ARC
8
0
10
82.7
20
-73.175
40
0.5
50
270
51
0
0
LINE
8
0
10
88.75
20
-59.675
11
101.75
21
-59.675
0
LINE
8
0
10
88.75
20
-73.675
11
101.75
21
-73.675
0
LINE
8
0
10
88.25
20
-60.175
11
88.25
21
-73.175
0
LINE
8
0
10
102.25
20
-60.175
11
102.25
21
-73.175
0
ARC
8
0
10
88.75
20
-60.175
40
0.5
50
90
51
180
0
ARC
8
0
10
101.75
20
-60.175
40
0.5
50
0
51
90
0
ARC
8
0
10
88.75
20
-73.175
40
0.5
50
180
51
270
0
ARC
8
0
10
101.75
20
-73.175
40
0.5
50
270
51
0
0
LINE
8
0
10
107.8
20
-59.675
11
120.8
21
-59.675
0
LINE
8
0
10
107.8
20
-73.675
11
120.8
21
-73.675
0
LINE
8
0
10
107.3
20
-60.175
11
107.3
21
-73.175
0
LINE
8
0
10
121.3
20
-60.175
11
121.3
21
-73.175
0
ARC
8
0
10
107.8
20
-60.175
40
0.5
50
90
51
180
0
ARC
8
0
10
120.8
20
-60.175
40
0.5
50
0
51
90
0
ARC
8
0
10
107.8
20
-73.175
40
0.5
50
180
51
270
0
ARC
8
0
10
120.8
20
-73.175
40
0.5
50
270
51
0
0
LINE
8
0
10
126.85
20
-59.675
11
139.85
21
-59.675
0
LINE
8
0
10
126.85
20
-73.675
11
139.85
21
-73.675
0
LINE
8
0
10
126.35
20
-60.175
11
126.35
21
-73.175
0
LINE
8
0
10
140.35
20
-60.175
11
140.35
21
-73.175
0
ARC
8
0
10
126.85
20
-60.175
40
0.5
50
90
51
180
0
ARC
8
0
10
139.85
20
-60.175
40
0.5
50
0
51
90
0
ARC
8
0
10
126.85
20
-73.175
40
0.5
50
180
51
270
0
ARC
8
0
10
139.85
20
-73.175
40
0.5
50
270
51
0
0
LINE
8
0
10
145.9
20
-59.675
11
158.9
21
-59.675
0
LINE
8
0
10
145.9
20
-73.675
11
158.9
21
-73.675
0
LINE
8
0
10
145.4
20
-60.175
11
145.4
21
-73.175
0
LINE
8
0
10
159.4
20
-60.175
11
159.4
21
-73.175
0
ARC
8
0
10
145.9
20
-60.175
40
0.5
50
90
51
180
0
ARC
8
0
10
158.9
20
-60.175
40
0.5
50
0
51
90
0
ARC
8
0
10
145.9
20
-73.175
40
0.5
50
180
51
270
0
ARC
8
0
10
158.9
20
-73.175
40
0.5
50
270
51
0
0
LINE
8
0
10
164.95
20
-59.675
11
177.95
21
-59.675
0
LINE
8
0
10
164.95
20
-73.675
11
177.95
21
-73.675
0
LINE
8
0
10
164.45
20
-60.175
11
164.45
21
-73.175
0
LINE
8
0
10
178.45
20
-60.175
11
178.45
21
-73.175
0
ARC
8
0
10
164.95
20
-60.175
40
0.5
50
90
51
180
0
ARC
8
0
10
177.95
20
-60.175
40
0.5
50
0
51
90
0
ARC
8
0
10
164.95
20
-73.175
40
0.5
50
180
51
270
0
ARC
8
0
10
177.95
20
-73.175
40
0.5
50
270
51
0
0
LINE
8
0
10
184
20
-59.675
11
197
21
-59.675
0
LINE
8
0
10
184
20
-73.675
11
197
21
-73.675
0
LINE
8
0
10
183.5
20
-60.175
11
183.5
21
-73.175
0
LINE
8
0
10
197.5
20
-60.175
11
197.5
21
-73.175
0
ARC
8
0
10
184
20
-60.175
40
0.5
50
90
51
180
0
ARC
8
0
10
197
20
-60.175
40
0.5
50
0
51
90
0
ARC
8
0
10
184
20
-73.175
40
0.5
50
180
51
270
0
ARC
8
0
10
197
20
-73.175
40
0.5
50
270
51
0
0
LINE
8
0
10
203.05
20
-59.675
11
216.05
21
-59.675
0
LINE
8
0
10
203.05
20
-73.675
11
216.05
21
-73.675
0
LINE
8
0
10
202.55
20
-60.175
11
202.55
21
-73.175
0
LINE
8
0
10
216.55
20
-60.175
11
216.55
21
-73.175
0
ARC
8
0
10
203.05
20
-60.175
40
0.5
50
90
51
180
0
ARC
8
0
10
216.05
20
-60.175
40
0.5
50
0
51
90
0
ARC
8
0
10
203.05
20
-73.175
40
0.5
50
180
51
270
0
ARC
8
0
10
216.05
20
-73.175
40
0.5
50
270
51
0
0
LINE
8
0
10
222.1
20
-59.675
11
235.1
21
-59.675
0
LINE
8
0
10
222.1
20
-73.675
11
235.1
21
-73.675
0
LINE
8
0
10
221.6
20
-60.175
11
221.6
21
-73.175
0
LINE
8
0
10
235.6
20
-60.175
11
235.6
21
-73.175
0
ARC
8
0
10
222.1
20
-60.175
40
0.5
50
90
51
180
0
ARC
8
0
10
235.1
20
-60.175
40
0.5
50
0
51
90
0
ARC
8
0
10
222.1
20
-73.175
40
0.5
50
180
51
270
0
ARC
8
0
10
235.1
20
-73.175
40
0.5
50
270
51
0
0
LINE
8
0
10
241.15
20
-59.675
11
254.15
21
-59.675
0
LINE
8
0
10
241.15
20
-73.675
11
254.15
21
-73.675
0
LINE
8
0
10
240.65
20
-60.175
11
240.65
21
-73.175
0
LINE
8
0
10
254.65
20
-60.175
11
254.65
21
-73.175
0
ARC
8
0
10
241.15
20
-60.175
40
0.5
50
90
51
180
0
ARC
8
0
10
254.15
20
-60.175
40
0.5
50
0
51
90
0
ARC
8
0
10
241.15
20
-73.175
40
0.5
50
180
51
270
0
ARC
8
0
10
254.15
20
-73.175
40
0.5
50
270
51
0
0
LINE
8
0
10
264.9625
20
-59.675
11
277.9625
21
-59.675
0
LINE
8
0
10
264.9625
20
-73.675
11
277.9625
21
-73.675
0
LINE
8
0
10
264.4625
20
-60.175
11
264.4625
21
-73.175
0
LINE
8
0
10
278.4625
20
-60.175
11
278.4625
21
-73.175
0
ARC
8
0
10
264.9625
20
-60.175
40
0.5
50
90
51
180
0
ARC
8
0
10
277.9625
20
-60.175
40
0.5
50
0
51
90
0
ARC
8
0
10
264.9625
20
-73.175
40
0.5
50
180
51
270
0
ARC
8
0
10
277.9625
20
-73.175
40
0.5
50
270
51
0
0
LINE
8
0
10
36.3625
20
-78.725
11
49.3625
21
-78.725
0
LINE
8
0
10
36.3625
20
-92.725
11
49.3625
21
-92.725
0
LINE
8
0
10
35.8625
20
-79.225
11
35.8625
21
-92.225
0
LINE
8
0
10
49.8625
20
-79.225
11
49.8625
21
-92.225
0
ARC
8
0
10
36.3625
20
-79.225
40
0.5
50
90
51
180
0
ARC
8
0
10
49.3625
20
-79.225
40
0.5
50
0
51
90
0
ARC
8
0
10
36.3625
20
-92.225
40
0.5
50
180
51
270
0
ARC
8
0
10
49.3625
20
-92.225
40
0.5
50
270
51
0
0
LINE
8
0
10
64.9375
20
-78.725
11
77.9375
21
-78.725
0
LINE
8
0
10
64.9375
20
-92.725
11
77.9375
21
-92.725
0
LINE
8
0
10
64.4375
20
-79.225
11
64.4375
21
-92.225
0
LINE
8
0
10
78.4375
20
-79.225
11
78.4375
21
-92.225
0
ARC
8
0
10
64.9375
20
-79.225
40
0.5
50
90
51
180
0
ARC
8
0
10
77.9375
20
-79.225
40
0.5
50
0
51
90
0
ARC
8
0
10
64.9375
20
-92.225
40
0.5
50
180
51
270
0
ARC
8
0
10
77.9375
20
-92.225
40
0.5
50
270
51
0
0
LINE
8
0
10
88.75
20
-78.725
11
101.75
21
-78.725
0
LINE
8
0
10
88.75
20
-92.725
11
101.75
21
-92.725
0
LINE
8
0
10
88.25
20
-79.225
11
88.25
21
-92.225
0
LINE
8
0
10
102.25
20
-79.225
11
102.25
21
-92.225
0
ARC
8
0
10
88.75
20
-79.225
40
0.5
50
90
51
180
0
ARC
8
0
10
101.75
20
-79.225
40
0.5
50
0
51
90
0
ARC
8
0
10
88.75
20
-92.225
40
0.5
50
180
51
270
0
ARC
8
0
10
101.75
20
-92.225
40
0.5
50
270
51
0
0
LINE
8
0
10
117.325
20
-78.725
11
130.325
21
-78.725
0
LINE
8
0
10
117.325
20
-92.725
11
130.325
21
-92.725
0
LINE
8
0
10
116.825
20
-79.225
11
116.825
21
-92.225
0
LINE
8
0
10
130.825
20
-79.225
11
130.825
21
-92.225
0
ARC
8
0
10
117.325
20
-79.225
40
0.5
50
90
51
180
0
ARC
8
0
10
130.325
20
-79.225
40
0.5
50
0
51
90
0
ARC
8
0
10
117.325
20
-92.225
40
0.5
50
180
51
270
0
ARC
8
0
10
130.325
20
-92.225
40
0.5
50
270
51
0
0
LINE
8
0
10
108.887
20
-79.725
11
114.887
21
-79.725
0
LINE
8
0
10
108.887
20
-94.725
11
114.887
21
-94.725
0
LINE
8
0
10
108.387
20
-80.225
11
108.387
21
-94.225
0
LINE
8
0
10
115.387
20
-80.225
11
115.387
21
-94.225
0
ARC
8
0
10
108.887
20
-80.225
40
0.5
50
90
51
180
0
ARC
8
0
10
114.887
20
-80.225
40
0.5
50
0
51
90
0
ARC
8
0
10
108.887
20
-94.225
40
0.5
50
180
51
270
0
ARC
8
0
10
114.887
20
-94.225
40
0.5
50
270
51
0
0
LINE
8
0
10
132.763
20
-79.725
11
138.763
21
-79.725
0
LINE
8
0
10
132.763
20
-94.725
11
138.763
21
-94.725
0
LINE
8
0
10
132.263
20
-80.225
11
132.263
21
-94.225
0
LINE
8
0
10
139.263
20
-80.225
11
139.263
21
-94.225
0
ARC
8
0
10
132.763
20
-80.225
40
0.5
50
90
51
180
0
ARC
8
0
10
138.763
20
-80.225
40
0.5
50
0
51
90
0
ARC
8
0
10
132.763
20
-94.225
40
0.5
50
180
51
270
0
ARC
8
0
10
138.763
20
-94.225
40
0.5
50
270
51
0
0
LINE
8
0
10
155.425
20
-78.725
11
168.425
21
-78.725
0
LINE
8
0
10
155.425
20
-92.725
11
168.425
21
-92.725
0
LINE
8
0
10
154.925
20
-79.225
11
154.925
21
-92.225
0
LINE
8
0
10
168.925
20
-79.225
11
168.925
21
-92.225
0
ARC
8
0
10
155.425
20
-79.225
40
0.5
50
90
51
180
0
ARC
8
0
10
168.425
20
-79.225
40
0.5
50
0
51
90
0
ARC
8
0
10
155.425
20
-92.225
40
0.5
50
180
51
270
0
ARC
8
0
10
168.425
20
-92.225
40
0.5
50
270
51
0
0
LINE
8
0
10
146.987
20
-79.725
11
152.987
21
-79.725
0
LINE
8
0
10
146.987
20
-94.725
11
152.987
21
-94.725
0
LINE
8
0
10
146.487
20
-80.225
11
146.487
21
-94.225
0
LINE
8
0
10
153.487
20
-80.225
11
153.487
21
-94.225
0
ARC
8
0
10
146.987
20
-80.225
40
0.5
50
90
51
180
0
ARC
8
0
10
152.987
20
-80.225
40
0.5
50
0
51
90
0
ARC
8
0
10
146.987
20
-94.225
40
0.5
50
180
51
270
0
ARC
8
0
10
152.987
20
-94.225
40
0.5
50
270
51
0
0
LINE
8
0
10
170.863
20
-79.725
11
176.863
21
-79.725
0
LINE
8
0
10
170.863
20
-94.725
11
176.863
21
-94.725
0
LINE
8
0
10
170.363
20
-80.225
11
170.363
21
-94.225
0
LINE
8
0
10
177.363
20
-80.225
11
177.363
21
-94.225
0
ARC
8
0
10
170.863
20
-80.225
40
0.5
50
90
51
180
0
ARC
8
0
10
176.863
20
-80.225
40
0.5
50
0
51
90
0
ARC
8
0
10
170.863
20
-94.225
40
0.5
50
180
51
270
0
ARC
8
0
10
176.863
20
-94.225
40
0.5
50
270
51
0
0
LINE
8
0
10
184
20
-78.725
11
197
21
-78.725
0
LINE
8
0
10
184
20
-92.725
11
197
21
-92.725
0
LINE
8
0
10
183.5
20
-79.225
11
183.5
21
-92.225
0
LINE
8
0
10
197.5
20
-79.225
11
197.5
21
-92.225
0
ARC
8
0
10
184
20
-79.225
40
0.5
50
90
51
180
0
ARC
8
0
10
197
20
-79.225
40
0.5
50
0
51
90
0
ARC
8
0
10
184
20
-92.225
40
0.5
50
180
51
270
0
ARC
8
0
10
197
20
-92.225
40
0.5
50
270
51
0
0
LINE
8
0
10
203.05
20
-78.725
11
216.05
21
-78.725
0
LINE
8
0
10
203.05
20
-92.725
11
216.05
21
-92.725
0
LINE
8
0
10
202.55
20
-79.225
11
202.55
21
-92.225
0
LINE
8
0
10
216.55
20
-79.225
11
216.55
21
-92.225
0
ARC
8
0
10
203.05
20
-79.225
40
0.5
50
90
51
180
0
ARC
8
0
10
216.05
20
-79.225
40
0.5
50
0
51
90
0
ARC
8
0
10
203.05
20
-92.225
40
0.5
50
180
51
270
0
ARC
8
0
10
216.05
20
-92.225
40
0.5
50
270
51
0
0
LINE
8
0
10
222.1
20
-78.725
11
235.1
21
-78.725
0
LINE
8
0
10
222.1
20
-92.725
11
235.1
21
-92.725
0
LINE
8
0
10
221.6
20
-79.225
11
221.6
21
-92.225
0
LINE
8
0
10
235.6
20
-79.225
11
235.6
21
-92.225
0
ARC
8
0
10
222.1
20
-79.225
40
0.5
50
90
51
180
0
ARC
8
0
10
235.1
20
-79.225
40
0.5
50
0
51
90
0
ARC
8
0
10
222.1
20
-92.225
40
0.5
50
180
51
270
0
ARC
8
0
10
235.1
20
-92.225
40
0.5
50
270
51
0
0
LINE
8
0
10
241.15
20
-78.725
11
254.15
21
-78.725
0
LINE
8
0
10
241.15
20
-92.725
11
254.15
21
-92.725
0
LINE
8
0
10
240.65
20
-79.225
11
240.65
21
-92.225
0
LINE
8
0
10
254.65
20
-79.225
11
254.65
21
-92.225
0
ARC
8
0
10
241.15
20
-79.225
40
0.5
50
90
51
180
0
ARC
8
0
10
254.15
20
-79.225
40
0.5
50
0
51
90
0
ARC
8
0
10
241.15
20
-92.225
40
0.5
50
180
51
270
0
ARC
8
0
10
254.15
20
-92.225
40
0.5
50
270
51
0
0
LINE
8
0
10
0
20
-95.25
11
285.75
21
-95.25
0
LINE
8
0
10
0
20
0
11
285.75
21
0
0
LINE
8
0
10
0
20
-95.25
11
0
21
0
0
LINE
8
0
10
285.75
20
-95.25
11
285.75
21
0
0
ENDSEC
0
EOF